<svg version="1.2" xmlns="http://www.w3.org/2000/svg" viewBox="0 0 1200 400" width="7349" height="2449.6666666666665">
	<defs>
		<linearGradient id="g1" x2="1" gradientUnits="userSpaceOnUse" gradientTransform="matrix(0,-375.786,-426.289,0,1250.298,375.12)">
			<stop offset="0" stop-color="#59182c"/>
			<stop offset="1" stop-color="#5a0e2e"/>
		</linearGradient>
		<linearGradient id="g2" x2="1" gradientUnits="userSpaceOnUse" gradientTransform="matrix(0,-379.557,-374.834,0,1086.998,376.834)">
			<stop offset="0" stop-color="#59182c"/>
			<stop offset="1" stop-color="#5a0e2e"/>
		</linearGradient>
		<linearGradient id="g3" x2="1" gradientUnits="userSpaceOnUse" gradientTransform="matrix(-12.838,0,0,114.321,808.18,235.446)">
			<stop offset="0" stop-color="#59182c"/>
			<stop offset="1" stop-color="#5a0e2e"/>
		</linearGradient>
		<linearGradient id="g4" x2="1" gradientUnits="userSpaceOnUse" gradientTransform="matrix(-26.108,0,0,22.673,794.003,239.203)">
			<stop offset="0" stop-color="#59182c"/>
			<stop offset="1" stop-color="#5a0e2e"/>
		</linearGradient>
		<linearGradient id="g5" x2="1" gradientUnits="userSpaceOnUse" gradientTransform="matrix(-61.691,0,0,16.341,945.907,300.434)">
			<stop offset="0" stop-color="#59182c"/>
			<stop offset="1" stop-color="#5a0e2e"/>
		</linearGradient>
		<linearGradient id="g6" x2="1" gradientUnits="userSpaceOnUse" gradientTransform="matrix(-23.609,0,0,16.115,833.125,259.423)">
			<stop offset="0" stop-color="#59182c"/>
			<stop offset="1" stop-color="#5a0e2e"/>
		</linearGradient>
		<linearGradient id="g7" x2="1" gradientUnits="userSpaceOnUse" gradientTransform="matrix(-8.85,0,0,1.982,822.708,276.844)">
			<stop offset="0" stop-color="#59182c"/>
			<stop offset="1" stop-color="#5a0e2e"/>
		</linearGradient>
		<radialGradient id="g8" cx="0" cy="0" r="1" gradientUnits="userSpaceOnUse" gradientTransform="matrix(-11.035,26.646,11.16,4.621,842.359,106.737)">
			<stop offset=".02" stop-color="#0091ff"/>
			<stop offset=".335" stop-color="#004880"/>
			<stop offset=".968" stop-color="#000000"/>
		</radialGradient>
		<linearGradient id="g9" x2="1" gradientUnits="userSpaceOnUse" gradientTransform="matrix(0,-126.565,127.238,0,114.954,403.614)">
			<stop offset="0" stop-color="#741d31"/>
			<stop offset="1" stop-color="#5a0e2e"/>
		</linearGradient>
		<linearGradient id="g10" x2="1" gradientUnits="userSpaceOnUse" gradientTransform="matrix(0,-24.701,10.471,0,234.745,403.614)">
			<stop offset="0" stop-color="#5c1025"/>
			<stop offset="1" stop-color="#460e2e"/>
		</linearGradient>
		<linearGradient id="g11" x2="1" gradientUnits="userSpaceOnUse" gradientTransform="matrix(0,-359.966,551.571,0,-159.478,359.966)">
			<stop offset="0" stop-color="#59182c"/>
			<stop offset="1" stop-color="#5a0e2e"/>
		</linearGradient>
	</defs>
	<style>
		.s0 { fill: url(#g1) } 
		.s1 { fill: url(#g2) } 
		.s2 { fill: #a43e38 } 
		.s3 { fill: #d65438 } 
		.s4 { opacity: .5;mix-blend-mode: multiply;fill: #ae9aff } 
		.s5 { fill: #862738 } 
		.s6 { fill: #882d3b } 
		.s7 { fill: #81202f } 
		.s8 { fill: #ece7e5 } 
		.s9 { fill: #f67960 } 
		.s10 { fill: #008cff } 
		.s11 { fill: #54c3ff } 
		.s12 { fill: #00e5ff } 
		.s13 { fill: #1d4aff } 
		.s14 { fill: url(#g3) } 
		.s15 { fill: url(#g4) } 
		.s16 { fill: url(#g5) } 
		.s17 { fill: url(#g6) } 
		.s18 { fill: url(#g7) } 
		.s19 { fill: #6c1827 } 
		.s20 { opacity: .5;mix-blend-mode: multiply;fill: #7c364c } 
		.s21 { fill: #601336 } 
		.s22 { fill: #c78b56 } 
		.s23 { mix-blend-mode: screen;fill: url(#g8) } 
		.s24 { fill: url(#g9) } 
		.s25 { fill: url(#g10) } 
		.s26 { fill: #9e322c } 
		.s27 { fill: #d0c0cc } 
		.s28 { opacity: .45;fill: #36003e } 
		.s29 { opacity: .45;fill: #3f002c } 
		.s30 { fill: url(#g11) } 
	</style>
	<g id="space background">
		<g id="&lt;Group&gt;">
			<g id="&lt;Clip Group&gt;">
				<g id="1">
					<path id="&lt;Path&gt;" fill-rule="evenodd" class="s0" d="m871.52-0.67l330.71 1.11 0.56 374.68h-146.36z"/>
					<path id="&lt;Path&gt;" fill-rule="evenodd" class="s1" d="m1087.19 376.83l-14.61-5.4v-4.37h-2.68l17.29-82.86 2.92-7.21v-4.63l1.64-4.47v-1.74l-6.51-78.45 1.95-5.66-9.5-156.46-7.79-3.47h-19.6l-63.9 11.19-8.03 3.09-58.43-27.79h-13.57l-37.8-11.32h-9.74-3.4v3.08l-7.55-1.03-140.47 6.95 29.21 136.64-2.19 11.58 8.77 6.18 13.87 17.75 91.18 54.57 1.66 11.34 105.82 52.98 21.18 20.07 2.19 12.35-44.55 37.83-24.84-33.97-72.3-27.79-41.99 45.55-7.67-0.77-7.31 16.98-16.06-4.63-21.91 13.89z"/>
					<path id="&lt;Path&gt;" fill-rule="evenodd" class="s2" d="m1078.72 285.17c0 0-51.81 11.21-99.62 44.57l-44.55 37.83 44.76-27.57 15.12-15.42 8.11-2.86-33.77 35.13-12.97 19.98 37.69-4.71 36.87-56.54 5.68-0.85-10.46 16.27 0.32 4.64z"/>
					<path id="&lt;Path&gt;" fill-rule="evenodd" class="s2" d="m1078.72 322.01l-60.11 54.82h16.21z"/>
					<path id="&lt;Path&gt;" fill-rule="evenodd" class="s2" d="m1074.3-2.72l-25.64 144.84-48.28 49.23-13.78-20.96 6.48-33.41-25.53 70.67-19.04 31.27 29.99-185.89-11.35 35.98-5.27 16.7 16.49-69.32 2.15-36.53 68.62-2.58z"/>
					<path id="&lt;Path&gt;" fill-rule="evenodd" class="s2" d="m1060.75 115.56l-12.09 63.02-5.74 39.78 15-45.4 6.07-54.83z"/>
					<path id="&lt;Path&gt;" fill-rule="evenodd" class="s2" d="m868.57-2.72l25.64 111.43 24.31 96.8-34.03-104.12 9.06 42.44-24.98-53.97-13.14-92.58z"/>
					<path id="&lt;Path&gt;" fill-rule="evenodd" class="s2" d="m847.88-0.67l23.64 167.63-6.48 11.62-17.16-63.02v47.97l-58.62 18.42-26.74-56.11 6.89-4.71 6.08 9.38-29.99-83.05 17.42 68.1-17.42-47.11 21.88 91.66-21.88-2.14-38.09-151.69 4.46-6.95z"/>
					<path id="&lt;Path&gt;" fill-rule="evenodd" class="s2" d="m736.62 142.92l3.88 8.76v4.71l-6.07-1.89z"/>
					<path id="&lt;Path&gt;" fill-rule="evenodd" class="s3" d="m837.41 305.81l-41.99 45.55-5.95 19.91h6.88l30.8-46.69-21.68 37.48 38.7 9.21h4.66l24.31-29.56-2.58 0.22-19.1 14.34 28.37-27.41 5.27 2.14-25.53 33.63 5.87 2.99 41.6-35.05z"/>
					<path id="&lt;Path&gt;" fill-rule="evenodd" class="s3" d="m787.75 350.59l4.1 0.41-8.39 20.27-6.62 3.42z"/>
					<path id="&lt;Path&gt;" fill-rule="evenodd" class="s3" d="m764.38 362.94l11.54 3.32-2.32 8.43h-5.95l1.49-5-2.97 5-21.57 0.79z"/>
					<path id="&lt;Path&gt;" fill-rule="evenodd" class="s2" d="m1053.46 282.6l-36.74 23.21-23.77 9.49z"/>
					<path id="&lt;Path&gt;" fill-rule="evenodd" class="s2" d="m969.31 211.5l9.73-24.45 2.16 4.3-5.95 33.58-11.07 3.99z"/>
					<path id="&lt;Path&gt;" fill-rule="evenodd" class="s2" d="m1072.58 367.06h-2.68l-13.47 8.06 11.75-2z"/>
					<path id="&lt;Path&gt;" fill-rule="evenodd" class="s2" d="m1072.58 371.43l-4.13 3.69h15.26z"/>
					<path id="&lt;Path&gt;" fill-rule="evenodd" class="s2" d="m1066.56 341.14l-19.31 22.84 14.99-8.56 4.32-4.71v-6z"/>
					<path id="&lt;Path&gt;" fill-rule="evenodd" class="s2" d="m919.03-0.67l-14.77 1.11 14.26 55.16-7.83-14.85 17.83 54.82z"/>
					<path id="&lt;Path&gt;" fill-rule="evenodd" class="s2" d="m848.25 233l38.73-17.21 4.26 2.57-25.39 17.42 11.61-2.86-27.55 11.42z"/>
					<path id="&lt;Path&gt;" fill-rule="evenodd" class="s4" d="m745.5 157.97l21.88 2.14-5.36-22.46 27.24 44.3 55.52-14.99 3.1-3.43v-47.97l17.16 63.02 6.48-11.62-13.66-96.88 8.72 5.73 1.99 14.05 24.98 53.97 13.49 26.55 11.48 35.13-49.95-208.23 15.76 4.72 25.69 140.92 29.17 72.87-10.67-120.22-8.58-86.97 2.84 1.35 9.52 85.62 16.21 97.37-1.62 45.98 20.66-31.27-3.37 21.27 11.07-3.99 11.35-54.54 6.88 30.05 20.34 37.77 29.1-19.85 15-45.4 6.07-54.83-3.24-2.57-9.99 49.83-2.1-23.27 21.24-120.01 4.4-24.83 127.93 3.16 0.56 374.68-100.28 1.71-12.4-104.47v4.63l-2.92 7.21-17.29 82.86 8.14-45.05-35.12 30.55-6.65-26.82 44.34-40.57-23.71 6.26-3.44-8.83-76.55 34.79-21.18-20.07-105.82-52.98 27.55-11.42 16.35-14.56-6.83-2.57-38.73 17.21-91.18-54.57z"/>
					<path id="&lt;Path&gt;" fill-rule="evenodd" class="s4" d="m1030.36 315.58l-0.54 8.82-4.24 6.6-12.78 16.42 5.81 29.41h-14.59l-10.26-3.71-37.96 3.71 37.69-4.71z"/>
					<path id="&lt;Path&gt;" fill-rule="evenodd" class="s4" d="m979.31 340l-1.08 3.57-26.95 15.27-15.94 10.85h-1.89l1.1-2.12z"/>
					<path id="&lt;Path&gt;" fill-rule="evenodd" class="s4" d="m1034.82 376.83l12.43-11.03v-1.82l9.18-14.14z"/>
					<path id="&lt;Path&gt;" fill-rule="evenodd" class="s4" d="m1066.56 350.71l-3.17 5.99-2.74 1.29-4.96 7.28h-4.56l-3.88-1.29 14.99-8.56z"/>
					<path id="&lt;Path&gt;" fill-rule="evenodd" class="s4" d="m907.04 332.57l2.67 1.03 2.86 3.91-10.25 1.03-2.74 2.6-26.3 24.13h-3.52l-2.7 1.79 2.43 9.77-4.05-9.21z"/>
					<path id="&lt;Path&gt;" fill-rule="evenodd" class="s4" d="m873.14 341.71l1.37 3.24-14.94 19.68-3.85 12.2h-3.65l-3.24-5.56z"/>
					<path id="&lt;Path&gt;" fill-rule="evenodd" class="s4" d="m805.47 362.06l-1.62 14.77h-2.43l3.01-17.81 8.34-12.63 14.38-21.81z"/>
					<path id="&lt;Path&gt;" fill-rule="evenodd" class="s4" d="m789.47 371.27l0.47 5.56h-4.32l-2.16-5.56 8.39-20.27 1.27 0.13-3.42 6.18-3.98 12.28 2.57 0.85 6.38-19.16 0.67-0.28z"/>
					<path id="&lt;Path&gt;" fill-rule="evenodd" class="s4" d="m1000.38 191.35l1.28 5.88 8.72-8.52 4.99-6.76 14.38-7.71 18.91-32.12z"/>
					<path id="&lt;Path&gt;" fill-rule="evenodd" class="s4" d="m974.27 199.04l-1.14-6.82 19.52-54.05-6.05 32.22 1.69 2.57-7.09 8.99-2.5 5.95z"/>
					<path id="&lt;Path&gt;" fill-rule="evenodd" class="s4" d="m1042.92 218.36l26.98 69.64 6.18-2.2-22.62-70.01 11.05 13.13 14.21 56.25-33.1 31.62-4.32 35.77 36.74-30.55 9.15-37.81 4.26-20.05 70.41-34.65 41.25 26.73-0.32 118.89-0.56-374.68-126.14 24.43-8.45 84.7-8.1 66.92z"/>
					<path id="&lt;Path&gt;" fill-rule="evenodd" class="s5" d="m1111.59-1.41l-9.08 103.43 7.95 11.87 10.04-33.2-17.99 192.9 26.57-82.62 12.63-6.02 43.87-162.13-5.91 93.29 22.08-15.24 0.48-100.43z"/>
					<path id="&lt;Path&gt;" fill-rule="evenodd" class="s5" d="m1146.51 182.81l14.23-65.81 6.23-11.2-0.95 45.92-11.36 25.56z"/>
					<path id="&lt;Path&gt;" fill-rule="evenodd" class="s5" d="m1102.23 322.53l6.42-52.16 15.22-47.15 1.85-0.84-9.06 57.18 13.13-74.05 32.07 23.99-39.31 81.67z"/>
					<path id="&lt;Path&gt;" fill-rule="evenodd" class="s5" d="m1177.78 129.78l2.43-8.59 13.67-5.63-2.53 8.74z"/>
					<path id="&lt;Path&gt;" fill-rule="evenodd" class="s4" d="m946.89 238.92l-7.7-23.13-10.67-120.22-9.49-96.24h63.86l-21.01 106.38 16.62-52.68z"/>
					<g id="&lt;Group&gt;" style="opacity: .5;mix-blend-mode: soft-light">
						<path id="&lt;Path&gt;" fill-rule="evenodd" class="s2" d="m1068.1 32.29l-3.09 4.89-13.17 77.38-1.35 1 9.86-63.47h-23.3l-8.17 69.04h-1.49l0.95-19.74h-10l-6.15 77.92 36.47-37.19z"/>
						<path id="&lt;Path&gt;" fill-rule="evenodd" class="s2" d="m1026.11 88.79l3.64-30.84h-3.64l-5.27 30.84z"/>
						<path id="&lt;Path&gt;" fill-rule="evenodd" class="s2" d="m985.85 157l6.8-72.7-3.4-1.29-10.75 85.59-3.04 2.21 5.74-59.74-8.51-0.22-12.02 109.22 6.88-12.42z"/>
						<path id="&lt;Path&gt;" fill-rule="evenodd" class="s2" d="m817.76-0.67l30.12 116.23v35.98l-20.73 18.51-23.97-135.01-2.17 0.29 17.56 114.33-6.48 1.88-27.28-99.45-4.6-2.2-11.61-50.56z"/>
						<path id="&lt;Path&gt;" fill-rule="evenodd" class="s2" d="m827.15-0.67l16.28 74.04h4.82l-10.74-73.52z"/>
						<path id="&lt;Path&gt;" fill-rule="evenodd" class="s2" d="m734.43 113.89l11.07-5.18-16.61-76.42h-4.87l9.05 48.15-1.21 0.14-12.83-59.39-8.58-2.8 23.98 94.46z"/>
						<path id="&lt;Path&gt;" fill-rule="evenodd" class="s2" d="m864.21 316.11l-30.17 41.88-16.61-3.29 26.74-36.12-3.35-2.47-17.52 23.89-4.22-1.46 21.74-31.42z"/>
						<path id="&lt;Path&gt;" fill-rule="evenodd" class="s2" d="m901.91 335.72l-10.67-3.17-13.64 13.66 9.38 3.48z"/>
						<path id="&lt;Path&gt;" fill-rule="evenodd" class="s2" d="m857.95 334.57l-4.39-2-11.28 17.12 4.19 1.02z"/>
						<path id="&lt;Path&gt;" fill-rule="evenodd" class="s2" d="m1015.39 338.54h-16.36l-28.37 29.08 5.54 1.59 18.77-19.79-4.59 7.57 12.33 1z"/>
						<path id="&lt;Path&gt;" fill-rule="evenodd" class="s2" d="m993.08 342.71l-12.41 13.4h-2.17l12.86-13.4z"/>
						<path id="&lt;Path&gt;" fill-rule="evenodd" class="s2" d="m980.86 335.07l-3.38 4.93-21.68 14.48-2.43 0.18 23.37-18.09z"/>
						<path id="&lt;Path&gt;" fill-rule="evenodd" class="s2" d="m1131.45 33.26l-16.57 120.42 21.57 7.11 20.29-114.24 5.12-0.66-5.12 32.02 14.73-1.22 20.84-77.42-57.61 1.17z"/>
						<path id="&lt;Path&gt;" fill-rule="evenodd" class="s2" d="m1106.94 51.58l10.69-5.03 7.4-41.82-14.12 1.63z"/>
						<path id="&lt;Path&gt;" fill-rule="evenodd" class="s2" d="m1110.58 58.87v-5.35l4.3-1.94-2.48 6.37z"/>
						<path id="&lt;Path&gt;" fill-rule="evenodd" class="s2" d="m1202.27 28.15l-6.47 4.14-8.17 64.11 10.36-2.33 2.4-40.55 1.84 1.71z"/>
						<path id="&lt;Path&gt;" fill-rule="evenodd" class="s2" d="m1136.45 180.49l8.55-56.19 4.92 1.33-9.56 54.24z"/>
						<path id="&lt;Path&gt;" fill-rule="evenodd" class="s2" d="m1122.21 289.31l16.73-46.92 14.65 4.87-25.01 51.69z"/>
						<path id="&lt;Path&gt;" fill-rule="evenodd" class="s2" d="m1118.85 290.77l3.7-14.69-5.18-0.54-4.96 13.77z"/>
						<path id="&lt;Path&gt;" fill-rule="evenodd" class="s2" d="m1156.74 240.13l-4.37-4.31 2.29-4.17 5.84 1.95z"/>
					</g>
					<path id="&lt;Path&gt;" fill-rule="evenodd" class="s6" d="m1024.3 166.96l-23.92 17.42h-3.92l3.92 6.97z"/>
					<path id="&lt;Path&gt;" fill-rule="evenodd" class="s6" d="m1046.91 206.29l-2.66 2.87-1.33 9.2z"/>
					<path id="&lt;Path&gt;" fill-rule="evenodd" class="s7" d="m847.88 151.54l-20.73 18.51 20.73-6.52z"/>
					<path id="&lt;Path&gt;" fill-rule="evenodd" class="s7" d="m798.17 179.15l-13.36-6.19 4.45 8.99z"/>
					<path id="&lt;Path&gt;" fill-rule="evenodd" class="s7" d="m871.52 166.96l-4.06-28.79 2.03 32.43z"/>
					<path id="&lt;Path&gt;" fill-rule="evenodd" class="s7" d="m1001.87 359.27l-19.31 14.22 10.93-1.37z"/>
					<path id="&lt;Path&gt;" fill-rule="evenodd" class="s7" d="m1064.3 353.17l2.26-6.96v4.5z"/>
					<path id="&lt;Path&gt;" fill-rule="evenodd" class="s7" d="m871.52 362.5l-9.85 3.2 3.77 1.92z"/>
					<path id="&lt;Path&gt;" fill-rule="evenodd" class="s7" d="m850.52 369.21l-6.35 2.06h4.66z"/>
					<path id="&lt;Path&gt;" fill-rule="evenodd" class="s7" d="m801.2 363.92l-11.73 7.35h6.88z"/>
					<g id="&lt;Group&gt;" style="opacity: .2;mix-blend-mode: soft-light">
						<path id="&lt;Path&gt;" fill-rule="evenodd" class="s8" d="m928.52 19.83l14.32 124.22 6.38 10.33 2.73 24.93 12.23-88.67 2.77-58.35-13.64-7.82-1.96 96.02-3.62 1.5-1.92-121.55-19.2-0.84z"/>
						<path id="&lt;Path&gt;" fill-rule="evenodd" class="s8" d="m898.09 6.12l1.49 47.98-4 9.65-8.6-60.96z"/>
						<path id="&lt;Path&gt;" fill-rule="evenodd" class="s8" d="m1080.2 273.32l-17.42-59.11-5.49-32.04 4.98-28.29 17.93 99.6-18.86-111.36 2.65-14.71 40.65 98.24-2.13 66.57-13.8-18.9-1.62 11.27z"/>
						<path id="&lt;Path&gt;" fill-rule="evenodd" class="s8" d="m1069.9 275.61l-22.2-71.71-4.78 14.46 24.89 64.24z"/>
						<path id="&lt;Path&gt;" fill-rule="evenodd" class="s8" d="m1076.08 289.31v35.1l-27.42 26.3v-36.31l4.8-5.09 2.95 26.41 1.81-1.29-0.93-28.78z"/>
					</g>
					<path id="&lt;Path&gt;" fill-rule="evenodd" class="s4" d="m891.24 218.36l67 73.67 12.42 10.28-36.11-43.98 2.34-1.42-52.13-59.68z"/>
					<g id="&lt;Group&gt;" style="mix-blend-mode: soft-light">
						<path id="&lt;Path&gt;" fill-rule="evenodd" class="s9" d="m1005.24 91.26l1.32-10.61-2.54-1.39-1.41 12z"/>
						<path id="&lt;Path&gt;" fill-rule="evenodd" class="s9" d="m981.94 97.57l1.52-14.56-5.88-11.78v27.2z"/>
						<path id="&lt;Path&gt;" fill-rule="evenodd" class="s9" d="m818.84 133.98l-6.11-22.34c0 0-0.37 0.82-0.67 0.82-0.31 0 5.57 22.38 5.57 22.38z"/>
						<path id="&lt;Path&gt;" fill-rule="evenodd" class="s9" d="m870.86 76.89l-6.11-22.35c0 0-0.37 0.82-0.68 0.82-0.3 0 5.57 22.38 5.57 22.38z"/>
						<path id="&lt;Path&gt;" fill-rule="evenodd" class="s9" d="m806.69 165.78l-1.52-3.96h-2.74l2.13 4.82z"/>
						<path id="&lt;Path&gt;" fill-rule="evenodd" class="s9" d="m985.59 72.78l-1.52-3.96h-2.74l2.13 4.82z"/>
						<path id="&lt;Path&gt;" fill-rule="evenodd" class="s9" d="m1129.66 287.9l-1.52-3.96h-2.74l2.13 4.82z"/>
						<path id="&lt;Path&gt;" fill-rule="evenodd" class="s9" d="m1146.56 327.63l-1.52-3.96h-2.74l2.13 4.82z"/>
						<path id="&lt;Path&gt;" fill-rule="evenodd" class="s9" d="m745.5 32.29l0.58 16.77-8.61-26.95z"/>
						<path id="&lt;Path&gt;" fill-rule="evenodd" class="s9" d="m850.02 14.48h-4.43l2.21 43.47h8.35z"/>
						<path id="&lt;Path&gt;" fill-rule="evenodd" class="s9" d="m1010.38 159.25l-5.8 9.35-4.2-1.64 7.7-10.28z"/>
						<path id="&lt;Path&gt;" fill-rule="evenodd" class="s9" d="m869.75 331l-11.8 13.87-5.08-3.16 12.57-13.99z"/>
						<path id="&lt;Path&gt;" fill-rule="evenodd" class="s9" d="m1016.69 321.15l-15.91 9.85-1.72-1.5 14.59-8.35z"/>
						<path id="&lt;Path&gt;" fill-rule="evenodd" class="s9" d="m988.83 340l-1.62 1.12v1.59l2.94-2.71z"/>
						<path id="&lt;Path&gt;" fill-rule="evenodd" class="s9" d="m812.04 354.85l5.39-7.71h2.22l-5.37 7.52z"/>
						<path id="&lt;Path&gt;" fill-rule="evenodd" class="s9" d="m807.36 346.21l1.89-6.21-1.89 1.12-1.35 5.09z"/>
						<path id="&lt;Path&gt;" fill-rule="evenodd" class="s9" d="m842.82 360.56l-0.54-1.29-1.46 0.65 1 1.99z"/>
						<path id="&lt;Path&gt;" fill-rule="evenodd" class="s9" d="m812.04 358.42v0.85l-0.9 1.32-0.67-1.09z"/>
						<path id="&lt;Path&gt;" fill-rule="evenodd" class="s9" d="m1000.38 91.26l-1.83-1.08v3.43l0.92-0.86z"/>
						<path id="&lt;Path&gt;" fill-rule="evenodd" class="s9" d="m1049.14 33.47l-1.62 5.85h-3.25l2.44-5.85z"/>
						<path id="&lt;Path&gt;" fill-rule="evenodd" class="s9" d="m1049.14 38.32l-1.08 3.14 0.54 0.38 0.54-2.52z"/>
						<path id="&lt;Path&gt;" fill-rule="evenodd" class="s9" d="m980.52 154.65l-2.02-0.97v1.72h1.66z"/>
						<path id="&lt;Path&gt;" fill-rule="evenodd" class="s9" d="m1117.67 306.46l-2.03-0.97v1.72h1.66z"/>
						<path id="&lt;Path&gt;" fill-rule="evenodd" class="s9" d="m998.55 166.96l-2.09-0.86v1.82l1.05 0.68z"/>
						<path id="&lt;Path&gt;" fill-rule="evenodd" class="s9" d="m1134.72 252.5l-2.09-0.86v1.82l1.05 0.68z"/>
						<path id="&lt;Path&gt;" fill-rule="evenodd" class="s9" d="m1096.02 296.13l-2.09-0.86v1.82l1.05 0.69z"/>
						<path id="&lt;Path&gt;" fill-rule="evenodd" class="s9" d="m1136.31 86.19l1.32-10.6-2.54-1.39-1.41 11.99z"/>
						<path id="&lt;Path&gt;" fill-rule="evenodd" class="s9" d="m1113.01 92.51l1.52-14.56-5.88-11.78v27.2z"/>
						<path id="&lt;Path&gt;" fill-rule="evenodd" class="s9" d="m1116.66 67.72l-1.52-3.96h-2.74l2.13 4.82z"/>
						<path id="&lt;Path&gt;" fill-rule="evenodd" class="s9" d="m1141.45 154.19l-5.8 9.35-4.2-1.64 7.7-10.28z"/>
						<path id="&lt;Path&gt;" fill-rule="evenodd" class="s9" d="m1178.69 318.19l-5.79 9.36-4.21-1.65 7.7-10.28z"/>
						<path id="&lt;Path&gt;" fill-rule="evenodd" class="s9" d="m1131.45 86.19l-1.83-1.07v3.43l0.92-0.86z"/>
						<path id="&lt;Path&gt;" fill-rule="evenodd" class="s9" d="m1180.21 28.41l-1.62 5.85h-3.24l2.43-5.85z"/>
						<path id="&lt;Path&gt;" fill-rule="evenodd" class="s9" d="m1180.21 33.26l-1.08 3.14 0.54 0.38 0.54-2.52z"/>
						<path id="&lt;Path&gt;" fill-rule="evenodd" class="s9" d="m1111.59 149.59l-2.02-0.97v1.71h1.66z"/>
						<path id="&lt;Path&gt;" fill-rule="evenodd" class="s9" d="m1129.62 161.9l-2.09-0.86v1.82l1.05 0.68z"/>
						<path id="&lt;Path&gt;" fill-rule="evenodd" class="s9" d="m815.44 137.19l-2.17-5.03h-2.13l2.94 5.03z"/>
						<path id="&lt;Path&gt;" fill-rule="evenodd" class="s9" d="m871.64 51.58l-2.17-5.03h-2.13l2.94 5.03z"/>
						<path id="&lt;Path&gt;" fill-rule="evenodd" class="s9" d="m738.31 29.9l-3.55-11.51-5.06 0.8 5.57 10.71z"/>
						<path id="&lt;Path&gt;" fill-rule="evenodd" class="s9" d="m733.04 42.64v-2.35l-2.73-1.46 2.02 3.81z"/>
						<path id="&lt;Path&gt;" fill-rule="evenodd" class="s9" d="m964.18 370.24l4.19-3.18 1.21 1.59-3.65 1.59z"/>
						<path id="&lt;Path&gt;" fill-rule="evenodd" class="s9" d="m871.64 49.06l-3.06-10.81 2.94-0.96 1.52 11.77z"/>
						<path id="&lt;Path&gt;" fill-rule="evenodd" class="s9" d="m915.38 36.22v-7.28h1.42l-0.71 7.41z"/>
						<path id="&lt;Path&gt;" fill-rule="evenodd" class="s9" d="m913.66 33.27l-0.91-5.62h-1.45l1.45 5.62z"/>
						<path id="&lt;Path&gt;" fill-rule="evenodd" class="s9" d="m864.77 230.06l-1.77 8.86-4.61 1.91 4.49-10.77z"/>
						<path id="&lt;Path&gt;" fill-rule="evenodd" class="s9" d="m859.63 232.21l-1.24 4.28h-1.73l1.73-3.43z"/>
					</g>
					<path id="&lt;Path&gt;" fill-rule="evenodd" class="s10" d="m917.44 278.15l-17.73-8.88 21.38 1.91c0 0 18.14-0.05 18.81 0.68 0.66 0.73 3.01-3.34 3.01-3.34h33.75 13.49l11.72-3.05 16.74-18.27 22.69-8.28 1.62-20.56 3.99-12.07 14.91-10.88 11.47-33.59 11.93-12.16 0.35 5.74-11.05 6.21-2.42 5.74-8.87 28.13-3.36 1.75-12.1 9.06-2.85 8.32-0.63 7.28-1.37 19.03-17.15 8.85-22.83 17.7-12.69 2.29-11.75-0.29-34.45 0.57-2.83 3.28-22.59 3.93v1.5z"/>
					<path id="&lt;Path&gt;" fill-rule="evenodd" class="s10" d="m979.66 14.48l-25.27 68.53-6.66 7.63-16.11 39.87-3.91 1.65h-19.66l-6.26 6.73 6.6-4.86 18.22-1.55 1.57 0.32 3.51-1.46 0.54 0.32 10.94-7.9 14.05-42.09-0.71-1.39 1.17-2.36 11.95-33.03 8.79-9.36z"/>
					<path id="&lt;Path&gt;" fill-rule="evenodd" class="s11" d="m1038.06 241.63l-11.72 2.75-5.2 2.89-0.76 5.62 6.54-4.6 10.74-5.36z"/>
					<path id="&lt;Path&gt;" fill-rule="evenodd" class="s11" d="m1019.47 253.75l-1.06-5.04-4.36 5.36 0.96 3.42z"/>
					<path id="&lt;Path&gt;" fill-rule="evenodd" class="s11" d="m1011.27 259.53l-0.71-1.45-1.35 1.07 0.44 2.36z"/>
					<path id="&lt;Path&gt;" fill-rule="evenodd" class="s11" d="m1083.38 154.82l0.87-3.28-3.84 4.21 0.74 1.22z"/>
					<path id="&lt;Path&gt;" fill-rule="evenodd" class="s11" d="m932.57 274.82l-2.02-3.57h-7.97l2.79 4.83z"/>
					<path id="&lt;Path&gt;" fill-rule="evenodd" class="s11" d="m924.55 275.54l-2.38-3.32-1.37 0.69 2.33 2.63z"/>
					<path id="&lt;Path&gt;" fill-rule="evenodd" class="s11" d="m942.28 271.48l0.1-1.81 0.74-1.01-0.31 2.38z"/>
					<path id="&lt;Path&gt;" fill-rule="evenodd" class="s12" d="m1019.98 251.23v-3.97l-1.27 0.7 0.76 3.27z"/>
					<path id="&lt;Path&gt;" fill-rule="evenodd" class="s12" d="m981.32 269.06l-1.86-0.29-6.08 0.15v0.35h6.47z"/>
					<path id="&lt;Path&gt;" fill-rule="evenodd" class="s12" d="m972.89 269.27l-0.52-0.25-0.93-0.12 0.47 0.37z"/>
					<path id="&lt;Path&gt;" fill-rule="evenodd" class="s12" d="m1066.76 182.81l-1.26 5.47-2.42 5.49h-0.37z"/>
					<path id="&lt;Path&gt;" fill-rule="evenodd" class="s12" d="m1067 181.67l0.07-1.62 0.57-0.74z"/>
					<path id="&lt;Path&gt;" fill-rule="evenodd" class="s13" d="m964.18 269.71l-2.2-1.19h-19.07l-3.01 3.34 0.71 0.36 2.51-3.13 0.93-0.19 5.83 1.04z"/>
					<path id="&lt;Path&gt;" fill-rule="evenodd" class="s13" d="m964.69 269.7l-0.78-1.18h1.42l0.53 1.18z"/>
					<path id="&lt;Path&gt;" fill-rule="evenodd" class="s13" d="m916.09 376.83l-16.51-22.96-4.57-11.16-22.16 4.43-2.3-2.27-6.92 2.27-1.75-0.93-40.41-11.14-12.22 1.28-1.62 1.76 11.79-1.82 1.99-0.5 39.9 10.97 1.26 1.17 6.11-0.79 2.57 2 21.2-4.27h1.56l5.8 9.83 10.61 16.57 1.32 5.56z"/>
					<path id="&lt;Path&gt;" fill-rule="evenodd" class="s11" d="m954.96 84.21l-6.01 5.46-1.89 4.96-1.25 4.78 3.41 3.61z"/>
					<path id="&lt;Path&gt;" fill-rule="evenodd" class="s12" d="m945.34 103.43l0.47-5.7-0.39 0.24-2.05 5.17 0.91 0.86z"/>
					<path id="&lt;Path&gt;" fill-rule="evenodd" class="s12" d="m946.78 105.7h-5.13l-0.64 2.74 3.58 0.22z"/>
					<path id="&lt;Path&gt;" fill-rule="evenodd" class="s12" d="m976.17 35.34l-4.61 5.37h-0.46l2.53-11.77z"/>
					<path id="&lt;Path&gt;" fill-rule="evenodd" class="s12" d="m913.74 133.34l-0.2-0.99h-5.45l0.2 1.47z"/>
					<path id="&lt;Path&gt;" fill-rule="evenodd" class="s12" d="m908.09 133.98l-0.6-1.22-0.56 0.61 0.96 1.03z"/>
					<path id="&lt;Path&gt;" fill-rule="evenodd" class="s12" d="m969.83 269.27l-1.31-0.75h-1.72l1.51 0.91z"/>
					<path id="&lt;Path&gt;" fill-rule="evenodd" class="s11" d="m894.14 343.85l-7.7 1.02-4.03 1.39 11.73-1.58z"/>
					<path id="&lt;Path&gt;" fill-rule="evenodd" class="s11" d="m882.11 345.81l-1.32 0.99-5.6 1.18 0.84-1.09z"/>
					<path id="&lt;Path&gt;" fill-rule="evenodd" class="s11" d="m838.09 340.05l0.18-0.35-7.57-2.08v0.5z"/>
					<path id="&lt;Path&gt;" fill-rule="evenodd" class="s11" d="m912.14 376.19h2.54l-2.94-4.92-1.02 1.28z"/>
					<path id="&lt;Path&gt;" fill-rule="evenodd" class="s11" d="m894.47 344.69l0.35-1.59 0.46 1.18-0.58 0.93z"/>
					<path id="&lt;Path&gt;" fill-rule="evenodd" class="s11" d="m830.06 338.17l-0.21-0.79-1.35-0.37 0.64 0.9z"/>
					<path id="&lt;Path&gt;" fill-rule="evenodd" class="s11" d="m810.28 337.01l0.65-0.83-1.15 0.12-0.31 0.71z"/>
					<path id="&lt;Path&gt;" fill-rule="evenodd" class="s11" d="m813.58 337.19l2.27-1.34h2.31l0.18 0.61z"/>
					<path id="&lt;Path&gt;" fill-rule="evenodd" class="s11" d="m941.01 119.42l-3.1-4.48-3.31 8.21 3.37 1.15z"/>
					<path id="&lt;Path&gt;" fill-rule="evenodd" class="s12" d="m937.38 124.94l-2.9-1.18-1.25 2.64 1.32 1.1z"/>
					<path id="&lt;Path&gt;" fill-rule="evenodd" class="s10" d="m1039.38 241.63l-17.73 14.1-18.71 11.74 22.15-12.86 17.83-13.69z"/>
					<path id="&lt;Path&gt;" fill-rule="evenodd" class="s13" d="m1076.09 24.87l-12.1 48.77v11.19l-5.89 3.96-3.15 17.81 10.57-18.74-0.51-7.28 4.89-14.84 1.8 3.08 7.36 8.86 3.67 30.98-4.55 16.97 4.15 15.42 2.68 5.14-0.28-4.79-1.42-0.35-4.39-14.99 0.47-2 3.43-13.92-2.41-39.85-2.72-44.71z"/>
					<path id="&lt;Path&gt;" fill-rule="evenodd" class="s13" d="m1084.11 298.95l-9.59-2.43-4.62 2.43-9.35 18.13-3.26 4.07-3.83 18.85-4.8 10.71 4.69-4.5 1.93-8.89 2.54-15.31 3.24-4.11 14.89-18.31 2.77-0.64 5.2 0.91z"/>
					<path id="&lt;Path&gt;" fill-rule="evenodd" class="s13" d="m1082.6 306.16l-2.67 1.43-0.54 1.71v3.64l1.12 3.24z"/>
					<path id="&lt;Path&gt;" fill-rule="evenodd" class="s13" d="m974.79-0.17l-5.97 32.02-5.22 15.72-10.23 8.89-20.14 4.24-7.11 10.53-1.51-15.33-0.77-7.81 2.77 12.54 1.13 2.46 1.62-5.14 3.85 0.86 17.22-2.28 6.96-4.11 5.98-5.42 3.58-12.25 4.15-34.31z"/>
					<path id="&lt;Path&gt;" fill-rule="evenodd" class="s2" d="m1084.2 296.52l-11.62 58.33 6.81-2.29 12.36-34.02-6.18 22.81 6.18 0.36 10.76-49.49-11.06-28.07-2.74 3.32z"/>
					<path id="&lt;Path&gt;" fill-rule="evenodd" class="s4" d="m1091.75 341.71l10.76 35.12v-84.61z"/>
					<path id="&lt;Path&gt;" fill-rule="evenodd" class="s4" d="m1085.57 341.35l3.14 34.97-1.52 0.51-7.8-24.27 11.41-31.41z"/>
					<path id="&lt;Path&gt;" class="s14" d="m807.63 247.21l0.55 40.93-0.55 49.97-0.16-14.56-6.05 20.94-4.54 5.28-0.62-47.23-0.23-12.62-0.69-5.01 1.54-20.27-1.07-26.76 1.97-2.43z"/>
					<path id="&lt;Path&gt;" fill-rule="evenodd" class="s2" d="m797.78 235.45l3.98 51.66-1.43 1.69-3.45 1.02 3.48 1.8 0.43 46.55-0.89 8.09-3.02 3.51-0.85-59.85-0.69-5.01 0.69-23.84-0.22-23.19z"/>
					<path id="&lt;Path&gt;" class="s15" d="m794 260.36v-10.59l-4.5-5.35-14.61-5.22-7 3.19 1.38 18.25 16.08 1.24z"/>
					<path id="&lt;Path&gt;" fill-rule="evenodd" class="s2" d="m774.89 239.2l0.45 21.44h-6.07l-1.38-18.25z"/>
					<path id="&lt;Path&gt;" class="s16" d="m945.91 300.43l-16.34 6.69h-2.78l-7.76 2.59-19.32 4.91-15.49 2.16z"/>
					<path id="&lt;Path&gt;" class="s17" d="m833.12 263.89v11.65h-3.84l-1.63-11.39-2.45 0.74-2.49-2.35-9.95-0.66-3.24-2.46 13.75 1.4 7.96-0.18z"/>
					<path id="&lt;Path&gt;" class="s18" d="m822.71 278.75l-2.08-1.91-6.77 0.71 1.75 0.96 5.71 0.32z"/>
					<path id="&lt;Path&gt;" fill-rule="evenodd" class="s4" d="m1154.66 177.28l45.73 38.51-41.18-41.12 4.17-12.03 6.06-2.8 33.1 48.15-0.31-48.15-24.45-30.06 3.03-10.16 13.07-4.06 9.23 16.43-1.36-31.12-22.08 15.24 3.31-52.35-6.52-7.25-4.99 20.18-9.49 33.35 4.99-12.36v8.12l-0.95 45.92z"/>
					<path id="&lt;Path&gt;" fill-rule="evenodd" class="s4" d="m1122.55 311.17l9.5-12.22 22.61-22.87 48.45 59.22-0.41-16.76-50.33-58.74 2.29-8.57 7.2-21.73z"/>
					<path id="&lt;Path&gt;" fill-rule="evenodd" class="s4" d="m1154.03 375.12l-35.12-38.6 42.95 38.6 8.59-1.28-10.1-15.85 26.02 16.84z"/>
					<path id="&lt;Path&gt;" fill-rule="evenodd" class="s19" d="m1116.13 314.76l9.32-9.61-2.9 7.32z"/>
					<path id="&lt;Path&gt;" fill-rule="evenodd" class="s19" d="m1152.07 221.99l7.63 11.99 2.16-4.48z"/>
					<path id="&lt;Path&gt;" fill-rule="evenodd" class="s5" d="m1113.07 375.12l21.65-9.85 13.42 3.38-27.35 7.07z"/>
					<path id="&lt;Path&gt;" fill-rule="evenodd" class="s5" d="m1143.29 373.27l7.38-1.84 25.77 4.29z"/>
					<path id="&lt;Path&gt;" fill-rule="evenodd" class="s5" d="m1186.97 373.84l2.84-4.44 6.44-3.5-1.33 7.94z"/>
					<path id="&lt;Path&gt;" fill-rule="evenodd" class="s5" d="m1196.25 375.12l2.75-6.19 1.51 1.57v5.22z"/>
					<path id="&lt;Path&gt;" fill-rule="evenodd" class="s5" d="m1173.69 329.52l2.75-18.35h1.21l3.66 9.98-3.81 8.37z"/>
					<path id="&lt;Path&gt;" fill-rule="evenodd" class="s5" d="m1152.07 265.89l13.12-34.24 12.59-2.15-7.48 19.75z"/>
					<path id="&lt;Path&gt;" fill-rule="evenodd" class="s4" d="m1177.78 229.5l25.33 26.73-0.52-10.36-21.91-16.37z"/>
					<path id="&lt;Path&gt;" fill-rule="evenodd" class="s4" d="m1152.07 265.89l3.48-2.38 7.28-2.87 6.23-8.33 2.09-2.66 9.09-11.84-2.46-8.31-7.48 19.75z"/>
					<path id="&lt;Path&gt;" fill-rule="evenodd" class="s4" d="m1141.71 184.95l30.57 37.04-25.77-39.18 14.23-65.81z"/>
					<path id="&lt;Path&gt;" fill-rule="evenodd" class="s20" d="m1118.86 267.13l-6.45 15.47-6.27 8.17-0.55 4.5 7.1-12.12 5.5-13.27z"/>
					<path id="&lt;Path&gt;" fill-rule="evenodd" class="s20" d="m1123.65 240.13l1.24 7.56 13.01 2.47 9.69-7.77 7.07-18.41 1.78 1.36-8.74 17.92-9.8 7.86-14.25-3.43h-1.34z"/>
					<path id="&lt;Path&gt;" fill-rule="evenodd" class="s20" d="m1129.08 190.97l-5.49-2.68-8.71-24.75-0.23-20.09 0.68-7.36 0.74 27.44 8.84 24.25 6.54 2.06z"/>
					<path id="&lt;Path&gt;" fill-rule="evenodd" class="s20" d="m1091.75 318.54l7.26-10.21-0.62 2.84-6.79 7.93 0.15-0.86z"/>
					<path id="&lt;Path&gt;" fill-rule="evenodd" class="s20" d="m1030.36 315.58l-3.14-3.86-1.87-2.3 5.01-6.47 12.29-6.43 2.68-1.01-9.18 4.86-6 3.47-3.92 4.9 1.07 2.81 3.52 4.03z"/>
					<path id="&lt;Path&gt;" fill-rule="evenodd" class="s20" d="m1036.04 314.73l13.72-12.67 15.66-6.11 3.89-0.44-1.89 1.34-2.16-0.33-14.65 5.56-4.93 4.51-10.01 8.71z"/>
					<path id="&lt;Path&gt;" fill-rule="evenodd" class="s20" d="m1146.51 0.3l-3.32 64.6 13.81 31.5h8.86l2.06-7.22-6.31 4.19h-4.61l-12.57-27.2 5.49-61.44 6.52-6.14z"/>
					<path id="&lt;Path&gt;" fill-rule="evenodd" class="s20" d="m1185.58 22.82l2.05-18.09 3.72-5.01 2.53 1.03-4.15 5.75-4.36 19.64z"/>
					<path id="&lt;Path&gt;" fill-rule="evenodd" class="s20" d="m1182.3 74.6l13.5-1.23 6.43-18.14-0.29 5.9-3.19 5.55-3.41 7.92-11.68 2.19-1.59 1.33z"/>
					<path id="&lt;Path&gt;" fill-rule="evenodd" class="s20" d="m1120.5 80.69l3.63-13.85-6.5-26.76-8.98-7.43 0.22-3.09 10.3 11.78 1.11 4.7 4.75 22.16-2.82 11.83-1.93 3.08z"/>
					<path id="&lt;Path&gt;" fill-rule="evenodd" class="s20" d="m775.49 130.51l25.3 12.8 21.72 15.81 2.88 11.48-1.69 0.53-1-9.77-6.39-6.02-34.03-20.05z"/>
					<path id="&lt;Path&gt;" fill-rule="evenodd" class="s20" d="m745.5 68.45l-14.1-21-11.61-8.62-3.51 1.9-1.35-4.51 4.45 1.54 13.66 9.69 13.5 21.76-0.1 1.77z"/>
					<path id="&lt;Path&gt;" fill-rule="evenodd" class="s20" d="m847.88 115.56l-2.29-25.38 11.71-24.04 0.47 3.3-9.89 19.83-1.3 2.27 2.27 20.1-0.6 5.29z"/>
					<path id="&lt;Path&gt;" fill-rule="evenodd" class="s20" d="m748.81 0.18l25.28 42.74 33.59 17.51h13.89l20.86 8.39 14.73-3.71-0.42-2.93-11.15 3.96h-6.88l-17.05-6.62-14.68-0.76-32.4-18.03-7.77-13.02-11.56-27.53z"/>
					<path id="&lt;Path&gt;" fill-rule="evenodd" class="s20" d="m992.65 138.17l11.93-22.06 16.26-10.41 36.45-13.8-0.54 4.5-5.6-0.22-30.31 10.86-18.23 14.4z"/>
					<path id="&lt;Path&gt;" fill-rule="evenodd" class="s20" d="m1038.59 152.39l-10.37-16.24-22.84-2.33-10.26 8.3-4.63 8.21-0.75 3.35 5.81-11.56 11.09-6.86 18.9 1.09 2.65 1.33 9.63 15.5z"/>
					<path id="&lt;Path&gt;" fill-rule="evenodd" class="s20" d="m978.5 53.03l20.05-11.19 4.06-9.55 18.23-22.38 14.96-12.13 1.35-0.5-11.8 10.18-5.88 5.54-16.53 20.13-4.83 10.09-18.45 9.81-2.4 3.92z"/>
					<path id="&lt;Path&gt;" fill-rule="evenodd" class="s21" d="m1037.82 153.18l3.48 6.35-2.71-7.14-3.95-4.33z"/>
					<path id="&lt;Path&gt;" fill-rule="evenodd" class="s21" d="m1056.75 96.4l-5.6-0.22-0.81-1.65 6.95-2.63 7.69 12.62z"/>
					<path id="&lt;Path&gt;" fill-rule="evenodd" class="s21" d="m823.7 171.13l7.27 12.84-5.58-13.37-2.69-9.24z"/>
					<path id="&lt;Path&gt;" fill-rule="evenodd" class="s21" d="m856.74 62.18l8.78 6.2 0.41 2.85-8.77-6.12-4.09 1.03v-2.39z"/>
					<path id="&lt;Path&gt;" fill-rule="evenodd" class="s21" d="m857.3 66.14l5.76 6.04-5.29-2.74-2.75 1.38z"/>
					<path id="&lt;Path&gt;" fill-rule="evenodd" class="s21" d="m998.11 43.22l0.44-1.38 4.06-9.55 5.28-5.18-4.95 6.02z"/>
					<path id="&lt;Path&gt;" fill-rule="evenodd" class="s21" d="m1002.61 121.44l6.5-5.13v-3.1l-4.53 2.9-11.93 22.06-0.74 3.95z"/>
					<path id="&lt;Path&gt;" fill-rule="evenodd" class="s21" d="m1167.43 89.89l-5.82 3.48 3.66 3.66 8.81 7.49z"/>
					<path id="&lt;Path&gt;" fill-rule="evenodd" class="s21" d="m1157 93.37v3.03l-9.73-22.2 0.46-0.89z"/>
					<path id="&lt;Path&gt;" fill-rule="evenodd" class="s21" d="m1182.07 78.12l1.59-1.33 4.63-2.74-5.99 0.55-3.41 8.51z"/>
					<path id="&lt;Path&gt;" fill-rule="evenodd" class="s21" d="m774.09 42.92l-0.94-4.57 1.43 2.38 10.53 5.87 0.77 2.46z"/>
					<path id="&lt;Path&gt;" fill-rule="evenodd" class="s21" d="m791.84 52.17l0.41-1.6 11.55 6.42v1.42z"/>
					<path id="&lt;Path&gt;" fill-rule="evenodd" class="s21" d="m775.49 130.51l19.75 12.41v-2.41z"/>
					<path id="&lt;Path&gt;" fill-rule="evenodd" class="s21" d="m798.66 144.94l1.36-2.02 4.58 3.17-2.97 0.6z"/>
					<g id="&lt;Group&gt;" style="opacity: .5;mix-blend-mode: soft-light">
						<path id="&lt;Path&gt;" fill-rule="evenodd" class="s22" d="m1040.14 148.62l-11.54-14.8 6.95-20.61 17.91-10.19v8.62l-5.79 29.51z"/>
						<path id="&lt;Path&gt;" fill-rule="evenodd" class="s22" d="m1032.39 152.39l-6.32-7.07-11.91 3.54-8.78 23.36 6.02 3.41 12.9-8.67z"/>
						<path id="&lt;Path&gt;" fill-rule="evenodd" class="s22" d="m1016.5 8.32l-6.31-7.07-11.91 3.54-8.79 23.36 6.03 3.41 12.89-8.67z"/>
						<path id="&lt;Path&gt;" fill-rule="evenodd" class="s22" d="m1038.03 28.31l-6.32-7.07-11.91 3.54-8.78 23.36 6.02 3.41 12.89-8.67z"/>
						<path id="&lt;Path&gt;" fill-rule="evenodd" class="s22" d="m855.78 340.13l-6.31-7.07-11.91 3.54-8.79 23.36 6.03 3.41 12.89-8.67z"/>
						<path id="&lt;Path&gt;" fill-rule="evenodd" class="s22" d="m1030.62 157.58l5.43-7.25 1.1 2.06-4.76 5.19z"/>
						<path id="&lt;Path&gt;" fill-rule="evenodd" class="s22" d="m1116.84 152.39v-26.57l2.89-36.82 13.95 6.26v40.89l-15.02 17.81z"/>
						<path id="&lt;Path&gt;" fill-rule="evenodd" class="s22" d="m1118.54 160.48l2.77-6.8 3.95-4.2 2.27 0.85-7.03 18.27z"/>
						<path id="&lt;Path&gt;" fill-rule="evenodd" class="s22" d="m1117.81 299.21l2.78-6.79 3.94-4.21 2.28 0.86-7.03 18.27z"/>
						<path id="&lt;Path&gt;" fill-rule="evenodd" class="s22" d="m1185.12 95.74l2.78-6.8 3.95-4.2 2.27 0.85-7.03 18.27z"/>
						<path id="&lt;Path&gt;" fill-rule="evenodd" class="s22" d="m1146.51 182.81l7.92-36.62 12.54-5.55-0.95 11.08-11.36 25.56z"/>
						<path id="&lt;Path&gt;" fill-rule="evenodd" class="s22" d="m1105.48 313.12l7.92-36.62 12.55-5.55-0.96 11.08-11.36 25.55z"/>
						<path id="&lt;Path&gt;" fill-rule="evenodd" class="s22" d="m1167.43 89.89l11.47-42.4-10.98 1.7-18 24.86 2.89 12.79 4.19 6.53h4.61z"/>
						<path id="&lt;Path&gt;" fill-rule="evenodd" class="s22" d="m1152.13 66.17l7.65-18.21-5.36-6.87-7.15 15.86 1.14 9.22z"/>
						<path id="&lt;Path&gt;" fill-rule="evenodd" class="s22" d="m823.7 171.13l-1-9.77-8.26-4.97-23.67-4.85-2.27 23.13 9.67 4.48z"/>
						<path id="&lt;Path&gt;" fill-rule="evenodd" class="s22" d="m793.08 64.66l-0.99-9.78-8.27-4.96-23.66-4.86-2.27 23.13 9.67 4.49z"/>
						<path id="&lt;Path&gt;" fill-rule="evenodd" class="s22" d="m787.84 170.05l-2.48-0.92-6.33-19.47 4.41-4.85 8.05 1.88z"/>
						<path id="&lt;Path&gt;" fill-rule="evenodd" class="s22" d="m1012.96 77.55l-2.48-0.92-6.33-19.47 4.4-4.85 8.06 1.88z"/>
						<path id="&lt;Path&gt;" fill-rule="evenodd" class="s22" d="m794.57 150.82l9.99 2.49 1.54-3.43-7.93-3.87-3.6 1.8z"/>
						<path id="&lt;Path&gt;" fill-rule="evenodd" class="s22" d="m773.75 78.71l9.99 2.48 1.54-3.43-7.93-3.86-3.6 1.8z"/>
						<path id="&lt;Path&gt;" fill-rule="evenodd" class="s22" d="m766.46 158.83l-11.02-39.7-6.63-3.28-2.27 27.46 5.57 15.3z"/>
						<path id="&lt;Path&gt;" fill-rule="evenodd" class="s22" d="m742.08 142.18l3.42-1.09v-12.89l-8.03-9-1.54 0.66z"/>
						<path id="&lt;Path&gt;" fill-rule="evenodd" class="s22" d="m784.81 127.67l-9.32-9.89-2.34 3.04 3.32 7.57 6.16 2.12z"/>
						<path id="&lt;Path&gt;" fill-rule="evenodd" class="s22" d="m828.89 153.31v-19.34l8.62-9.67h3.26l-3.26 27.68z"/>
						<path id="&lt;Path&gt;" fill-rule="evenodd" class="s22" d="m839.76 151.54l1.01-7.5 2.02-0.73v8.09z"/>
					</g>
					<path id="&lt;Path&gt;" fill-rule="evenodd" class="s19" d="m1148.2 181.67l9.6-11.44 2.7 16.47z"/>
					<path id="&lt;Path&gt;" fill-rule="evenodd" class="s19" d="m1108.65 111.2l4.26-5.4-1.32 9.14z"/>
					<path id="&lt;Path&gt;" fill-rule="evenodd" class="s19" d="m972.69 225.85l3.42-5.78 0.55 5.78z"/>
					<path id="&lt;Path&gt;" fill-rule="evenodd" class="s20" d="m979.04 187.05l2.28 0.73 11.32 12.66 20.15 38.48v13.97l1.85-1.66-0.59-9.6-0.23-3.42-20.34-37.77-10.99-12.66-2.96-1.85z"/>
					<path id="&lt;Path&gt;" fill-rule="evenodd" class="s20" d="m964.18 228.92l2.62 18.34 0.15 18.82 1.57 2.44h-1.72l-0.45-2.48v-18.8l-2.46-17.67z"/>
					<path id="&lt;Path&gt;" fill-rule="evenodd" class="s20" d="m1118.91 336.52l-12-4.25-4.4 1.84-0.28-3.11 5.16 0.6 13.4 5.5v1.11z"/>
					<path id="&lt;Path&gt;" fill-rule="evenodd" class="s20" d="m830.97 183.97l12.58 24.76 4.7 16.66v7.61l-1.86-1.11 1.42-5.08-1.28-4.58-3.84-13.74z"/>
					<path id="&lt;Path&gt;" fill-rule="evenodd" class="s20" d="m851.46 356.27l-13.06 1.57-20.06 7.3 2.98 0.69 4.04-2.46 14.35-5.38 10.4-0.81z"/>
					<path id="&lt;Path&gt;" fill-rule="evenodd" class="s20" d="m826.45 325.8l8.03-3.29 4.52 1.04 24.54-1.04h6.21l16.49 2.07-2.68-1.03-12.04-1.04-3.34-0.41h-4.2l-25.58 0.57-4.08-0.57-7.17 2.48z"/>
					<path id="&lt;Path&gt;" fill-rule="evenodd" class="s2" d="m877.6 374.69l19.76-8.86 9 2.33-18.08 6.96z"/>
					<path id="&lt;Path&gt;" fill-rule="evenodd" class="s2" d="m891.98 375.48l6.26-1.64 8.8 0.82z"/>
					<path id="&lt;Path&gt;" fill-rule="evenodd" class="s2" d="m931.34 375.48l6.95-1.75 15.08 1.75-4.86 1.35z"/>
				</g>
				<path id="1" fill-rule="evenodd" class="s23" d="m831.32 133.38c6.17 2.56 16.1-7.3 22.2-22.02 6.09-14.72 6.04-28.72-0.13-31.27-6.16-2.55-16.1 7.31-22.19 22.03-6.1 14.71-6.04 28.71 0.12 31.26z"/>
				<g id="1">
					<g id="&lt;Group&gt;">
						<path id="&lt;Path&gt;" fill-rule="evenodd" class="s24" d="m145.27 402.81l10.44-8.1-5.22-7.37v-3.66h8.24l-31.97-39.21-11.13-50.68 13.14-16.74 101.07 47.46 11.68 12.93-30.28 47.14-35.16 8.04 10.16 10.99z"/>
						<path id="&lt;Path&gt;" fill-rule="evenodd" class="s25" d="m269.12 403.61l-26.08-24.18-11.67-0.52-20.53 16.81 6.48 7.24z"/>
						<path id="&lt;Path&gt;" fill-rule="evenodd" class="s26" d="m115.63 293.79l26.36 56.44 8.52 2.02-5.17-20.03 13.09 23.59 52.81 28.77 10.48-16.3-62.99-56.65 72.62 41.64 10.17-15.83-11.68-12.93-94.18-47.46h-6.89z"/>
						<path id="&lt;Path&gt;" fill-rule="evenodd" class="s26" d="m147.32 356.53l8.37 1.21 22.88 13.55-4.77 2.74z"/>
						<path id="&lt;Path&gt;" fill-rule="evenodd" class="s26" d="m150.49 383.68h8.24l17.05 10.74-3.66 1.07-17.04-7.46z"/>
						<path id="&lt;Path&gt;" fill-rule="evenodd" class="s26" d="m155.71 394.71l18.39 4.31 3.5 1.94-23.13-1.94z"/>
						<path id="&lt;Path&gt;" fill-rule="evenodd" class="s26" d="m231.37 378.91l-17.5 14.33 21.85 9.95 4.26-0.08-14.46-13.52 17.66 13.7 27.09 0.32-26.03-24.7z"/>
						<path id="&lt;Path&gt;" fill-rule="evenodd" class="s26" d="m182.81 327l41.21 23.97-21.69-6.39z"/>
						<path id="&lt;Path&gt;" fill-rule="evenodd" class="s26" d="m204.73 348.23l4.57 0.8 0.91 3.77z"/>
						<path id="&lt;Path&gt;" fill-rule="evenodd" class="s26" d="m160.79 368.28l12.55 9.62-2.05 1.01z"/>
						<path id="&lt;Path&gt;" fill-rule="evenodd" class="s4" d="m211.24 384.58l-34.96-19.04-2.94 1.64 5.23 4.11-4.77 2.74-21.74-14.37 0.74 2.27-6.28-5.4 9.17 1.21 2.74-1.93-7.04-12.68-2.57 2.58 1.69 6.54-8.52-2.02-19.67-42.11 4.44 36.35 31.97 39.21 15.39 9.69 1.96-0.75z"/>
						<path id="&lt;Path&gt;" fill-rule="evenodd" class="s4" d="m180.22 367.68l8.87 8.97 17.27 9.05 4.88-1.12z"/>
						<path id="&lt;Path&gt;" fill-rule="evenodd" class="s4" d="m152.06 359.66l0.45 1.37 18.55 14.94 2.74-1.94z"/>
						<path id="&lt;Path&gt;" fill-rule="evenodd" class="s4" d="m202.33 344.58l0.97 7.13-42.51-38.9 22.02 14.19z"/>
						<path id="&lt;Path&gt;" fill-rule="evenodd" class="s4" d="m213.87 393.24l-3.03 2.48 11.94 7.31 3.66 0.08-8.56-6.37 12.9 6.39 4.94 0.06z"/>
						<path id="&lt;Path&gt;" fill-rule="evenodd" class="s4" d="m154.47 399.02l4.72 4.06-13.92-0.27 10.44-8.1z"/>
						<path id="&lt;Path&gt;" fill-rule="evenodd" class="s4" d="m155.08 388.03l1.62 6.91 14.97 3.51v-2.96z"/>
						<g id="&lt;Group&gt;" style="opacity: .5;mix-blend-mode: soft-light">
							<path id="&lt;Path&gt;" fill-rule="evenodd" class="s2" d="m120.41 287.69l46.65 64.12 19.75-1.3-60.77-69.99z"/>
							<path id="&lt;Path&gt;" fill-rule="evenodd" class="s2" d="m135.9 317.53l17.71 24.99 3.87-1.14-19.07-25.21z"/>
							<path id="&lt;Path&gt;" fill-rule="evenodd" class="s2" d="m165.51 292.09l-3.58 9.8 39.15 28.93 10.16-15.05z"/>
							<path id="&lt;Path&gt;" fill-rule="evenodd" class="s2" d="m192.97 356.53l7.65-3.73 10.62 10.5-10.28 4.38z"/>
							<path id="&lt;Path&gt;" fill-rule="evenodd" class="s2" d="m220.82 335.9l1.6-1.02 4.34 1.02-1.6 1.15z"/>
							<path id="&lt;Path&gt;" fill-rule="evenodd" class="s2" d="m232.36 351.71l-8.34-9.19 4.17-4.1 9.31 5.28z"/>
							<path id="&lt;Path&gt;" fill-rule="evenodd" class="s2" d="m200.16 369l-4.43-3.72-1.62 1.86 6.05 4.15z"/>
							<path id="&lt;Path&gt;" fill-rule="evenodd" class="s2" d="m235.72 383.68l6.35 14.16 18.27 0.61-20.36-16.66z"/>
							<path id="&lt;Path&gt;" fill-rule="evenodd" class="s2" d="m231.37 378.91l6.25 11.21h-1.9l-7.86-8.33z"/>
							<path id="&lt;Path&gt;" fill-rule="evenodd" class="s2" d="m227.86 385.7l8.62 7.54-2.62 1.47-7.08-6.68z"/>
						</g>
						<g id="&lt;Group&gt;" style="mix-blend-mode: soft-light">
							<path id="&lt;Path&gt;" fill-rule="evenodd" class="s27" d="m166.78 326.09l2.57-2.63 5.47 7.36h-2.28z"/>
							<path id="&lt;Path&gt;" fill-rule="evenodd" class="s27" d="m164.78 328.26l1.03-1.12 2.62 2.2h-1.65z"/>
							<path id="&lt;Path&gt;" fill-rule="evenodd" class="s27" d="m145.26 288.42l1.43-1.83 2.8 1.83-1.15 0.86z"/>
							<path id="&lt;Path&gt;" fill-rule="evenodd" class="s27" d="m213.06 328.24l1.07-1.24 3.19 0.62-0.91 1.72z"/>
							<path id="&lt;Path&gt;" fill-rule="evenodd" class="s27" d="m169.92 357.44l1.52-0.91 2.36 3.71-3 0.7z"/>
							<path id="&lt;Path&gt;" fill-rule="evenodd" class="s27" d="m220.11 391.95l1.52-0.92 2.36 3.72-2.99 0.7z"/>
							<path id="&lt;Path&gt;" fill-rule="evenodd" class="s27" d="m242.07 391.32l1.52-0.91 2.36 3.71-3 0.7z"/>
							<path id="&lt;Path&gt;" fill-rule="evenodd" class="s27" d="m201.34 374.56l0.77-0.96 4.71 1.49-1.21 1.6z"/>
							<path id="&lt;Path&gt;" fill-rule="evenodd" class="s27" d="m173.8 372.05l1.02-0.76-5.66-2.06v1.07z"/>
							<path id="&lt;Path&gt;" fill-rule="evenodd" class="s27" d="m126.89 309.97l1.94-3.74 7.99 6.58-3.43 3.35z"/>
							<path id="&lt;Path&gt;" fill-rule="evenodd" class="s27" d="m217.32 367.1v-1.21l2.67 2.39h-2.21z"/>
						</g>
						<path id="&lt;Path&gt;" fill-rule="evenodd" class="s7" d="m138.39 342.52l9.85 9.19-6.25-1.48z"/>
						<path id="&lt;Path&gt;" fill-rule="evenodd" class="s7" d="m207.47 382.53l5.57-0.74-1.8 2.79z"/>
						<path id="&lt;Path&gt;" fill-rule="evenodd" class="s7" d="m167.29 393.37l6.51 1.63-1.94 1.21z"/>
						<path id="&lt;Path&gt;" fill-rule="evenodd" class="s7" d="m154.81 397.84l2.19 1.4-2.53-0.22z"/>
						<path id="&lt;Path&gt;" fill-rule="evenodd" class="s7" d="m170.8 372.05l4.74 0.98-1.74 1z"/>
						<path id="&lt;Path&gt;" fill-rule="evenodd" class="s10" d="m210.21 357.93l1.03-5.13-1.53-2.05 0.5 2.05-5.48-4.57h1.29l0.51-1.78-4.09-1.1-22.22-20.02 9.4 4.01-27.69-14.83z"/>
						<path id="&lt;Path&gt;" fill-rule="evenodd" class="s11" d="m194.11 342.37l2.31-2.44 2.56 2.9-2.14 2.23z"/>
						<path id="&lt;Path&gt;" fill-rule="evenodd" class="s11" d="m192.71 341.76l0.87-2.77-6.42-6.2-3.26 2.09z"/>
					</g>
					<path id="&lt;Path&gt;" fill-rule="evenodd" class="s28" d="m269.1 403.6l1.17 0.01-26.03-24.7h-12.87l-3.51 2.88-13.99 11.45-3.03 2.48 6.48 7.24 5.47 0.07 3.65 0.08-0.06-0.04 6.42 0.08 2.92 0.04h0.01l7.45 0.1 25.94 0.32z"/>
					<path id="&lt;Path&gt;" fill-rule="evenodd" class="s28" d="m206.36 385.7l4.88-1.12 1.8-2.79 28.48-44.35-11.68-12.93-64.32-32.42h-0.01l-29.85-15.04h-6.89l-2.73 3.47-5.63 7.17-4.78 6.1 11.13 50.68 31.97 39.21h-8.24v3.66l5.22 7.37-10.44 8.1 40.97 0.8-10.16-10.99z"/>
					<path id="&lt;Path&gt;" fill-rule="evenodd" class="s29" d="m269.1 403.6l1.17 0.01-26.03-24.7h-12.87l-3.51 2.88-13.99 11.45-3.03 2.48 6.48 7.24 5.47 0.07 3.65 0.08-0.06-0.04 6.42 0.08 2.92 0.04h0.01l7.45 0.1 25.94 0.32z"/>
					<path id="&lt;Path&gt;" fill-rule="evenodd" class="s29" d="m206.36 385.7l4.88-1.12 1.8-2.79 28.48-44.35-11.68-12.93-64.32-32.42h-0.01l-29.85-15.04h-6.89l-2.73 3.47-5.63 7.17-4.78 6.1 11.13 50.68 31.97 39.21h-8.24v3.66l5.22 7.37-10.44 8.1 40.97 0.8-10.16-10.99z"/>
				</g>
				<g id="1">
					<path id="&lt;Path&gt;" fill-rule="evenodd" class="s30" d="m-1.15 359.43l105.61 0.54-2.05-5.64 2.05-3.4-18.54-24.82v-9.78l18.74-43.19v-6.15l115.28-168.85 3.9-58.48 4.98-4.52 4.95-34.15-233.77-0.99z"/>
					<path id="&lt;Path&gt;" fill-rule="evenodd" class="s2" d="m103.47 349.61l-17.55-23.5-17.45-16.69 13.48 17.05-2.18-1.99-5.35-5.76 6.58 26.59z"/>
					<path id="&lt;Path&gt;" fill-rule="evenodd" class="s2" d="m102.41 354.33l-22.64-7.25-2.58 1 16.53 7.95z"/>
					<path id="&lt;Path&gt;" fill-rule="evenodd" class="s2" d="m85.92 316.33l-10.2-11.21-2.49-6.24 12.4 13.55z"/>
					<path id="&lt;Path&gt;" fill-rule="evenodd" class="s2" d="m75.72 359.82l-21.84-83.88 2.29 36.49-18.38-51-30.69-15.55 7.02 101.2 11.83 11.44-9.37-57.19 14 58.64z"/>
					<path id="&lt;Path&gt;" fill-rule="evenodd" class="s2" d="m104.66 273.14l-12.19-16.02-19.24-40.62 24.25 42.1 7.18 8.39z"/>
					<path id="&lt;Path&gt;" fill-rule="evenodd" class="s5" d="m85.19 251.45l-37.06-91.75-46.95-61.63-3.11 84.41 36.24 37.3 25.48 12.57-6.26-25.2 10.61 20.05z"/>
					<path id="&lt;Path&gt;" fill-rule="evenodd" class="s5" d="m0 342.01l26.81 17.56-2.46-0.01-24.35-7.71z"/>
					<path id="&lt;Path&gt;" fill-rule="evenodd" class="s2" d="m0 356.03l7.1 3.32-7.1 0.08z"/>
					<path id="&lt;Path&gt;" fill-rule="evenodd" class="s2" d="m77.19 353.58l-1.47 3.25 20.15 2.74 6.11 0.38z"/>
					<path id="&lt;Path&gt;" fill-rule="evenodd" class="s2" d="m219.94 98.14l-24.09-18.43-9.94-61.94 5.16 63.86-19.22 8.07-4.59-19 0.45 15.21-61.83 0.39-31.46-87.03 159.35 0.73-4.95 35.14-2.11-31.87-2.87 36.39z"/>
					<path id="&lt;Path&gt;" fill-rule="evenodd" class="s2" d="m79.77 34.06l26.31 57.34-5.5 61.03-6.57 2.2-30.87-120.57 16.18 75.7-37.91-109.23 26.3-0.79z"/>
					<path id="&lt;Path&gt;" fill-rule="evenodd" class="s2" d="m12.27-1.86l25.52 89.97-10.98 1.59-26.97-38.49 0.16-51.21z"/>
					<path id="&lt;Path&gt;" fill-rule="evenodd" class="s5" d="m9.18 67.05l15.48 29.5 6.93 30.06-1.34 3.11-25.44-43.81z"/>
					<path id="&lt;Path&gt;" fill-rule="evenodd" class="s2" d="m63.14 189.09l18.5 38.27 10.92 8.22-21.83-41.35z"/>
					<path id="&lt;Path&gt;" fill-rule="evenodd" class="s2" d="m-0.61 191.14l28.59 32.94 15.24 15.83-1.59 2.04-41.63-34.8z"/>
					<path id="&lt;Path&gt;" fill-rule="evenodd" class="s4" d="m195.85 79.71l-45.67 109-20.18 39.33 13.04-32.62 48.03-113.79-5.16-63.86z"/>
					<path id="&lt;Path&gt;" fill-rule="evenodd" class="s4" d="m171.85 89.7l-24.17 80.38 20.03-84.17-0.45-15.21z"/>
					<path id="&lt;Path&gt;" fill-rule="evenodd" class="s4" d="m94.01 154.63l-7.33 69.82-15.95-30.22-7.59-5.14 10.09 20.87v11.87l-25.1-62.13-19.05-26.16 1.17-3.82 1.34-3.11-7.72-31.56-5.06-9.64-0.61-7.01 8.61 11.3 10.98-1.59-25.52-89.97 29.14 2.39 6.72 119.38 1.4-88.88 3.61 4.56 26.18 74.17z"/>
					<path id="&lt;Path&gt;" fill-rule="evenodd" class="s4" d="m92.47 257.12l-9.2 51.14-10.04-9.38 11.96-47.43-11.96-34.95z"/>
					<path id="&lt;Path&gt;" fill-rule="evenodd" class="s4" d="m80.36 245.88l-11.89-7.56-5.33-5.96 2.56 63.41 2.77 13.65 5.95 9.3 6.58 26.59 7.07 1.35 0.91 3.16-9.21-2.74-2.58 1 7.23 3.47-1.57 3.3-5.66-1.27-1.47 3.25 6.61 0.9 0.52 1.84-7.13 0.25-21.84-83.88 1.27 20.16-13.74-24.81-3.62-9.86-12.63-6.4-8.52-33.97 4.66 31.04-14.2-6.22-0.9-33.54 35.43 29.61 1.59-2.04-43.83-48.77 0.61-7.06 32.49 35.8 27.3 12.47-6.26-25.2 10.61 20.05z"/>
					<path id="&lt;Path&gt;" fill-rule="evenodd" class="s4" d="m6.2 212.34l0.9 33.54 7.02 101.2 3.83 3.71-1.42 2.05-16.53-10.83v-134.86z"/>
					<path id="&lt;Path&gt;" fill-rule="evenodd" class="s4" d="m105.88 86.3l6.54 9.2-10.98 47.42 4.64-51.52-26.31-57.34-1.81-24.99z"/>
					<path id="&lt;Path&gt;" fill-rule="evenodd" class="s4" d="m49.53 31.03l13.61 53.34 11.28 23.47 4.9 1.92-27.33-78.73z"/>
					<path id="&lt;Path&gt;" fill-rule="evenodd" class="s4" d="m84 26.19l3.65 12.67 14.62 41.61 3.61 5.83 9.81-0.39-9.81 0.39z"/>
					<path id="&lt;Path&gt;" fill-rule="evenodd" class="s4" d="m59.79 232.35l-29.21-11.94-2.6 2.55-28.59-31.82 0.61-7.06 34.31 35.7z"/>
					<path id="&lt;Path&gt;" fill-rule="evenodd" class="s4" d="m7.1 245.88l-2.84 26.26 4.72 26.74v25.6l-2.36 6.65 3.67 17.62 6.24 4.09 1.42-2.05-3.83-3.71z"/>
					<g id="&lt;Group&gt;" style="opacity: .5;mix-blend-mode: soft-light">
						<path id="&lt;Path&gt;" fill-rule="evenodd" class="s22" d="m208.53 57.89l-11.54-14.8 6.95-20.61 17.91-10.2v8.63l-5.79 29.51z"/>
						<path id="&lt;Path&gt;" fill-rule="evenodd" class="s22" d="m99.57 11.44l-9.42 1.15-3.89 11.8 14.18 20.55 6.24-3.01 0.23-15.53z"/>
						<path id="&lt;Path&gt;" fill-rule="evenodd" class="s22" d="m121.49 391.83l-6.31-7.07-11.91 3.53-8.79 23.37 6.03 3.41 12.89-8.67z"/>
						<path id="&lt;Path&gt;" fill-rule="evenodd" class="s22" d="m50.11 341.49l-3.81-6.28-1.03-5.67 2.04-1.32 10.51 16.52z"/>
						<path id="&lt;Path&gt;" fill-rule="evenodd" class="s22" d="m20.9 281.47l-0.44-7.32 1.73-5.5 2.42-0.21 1.58 19.51z"/>
						<path id="&lt;Path&gt;" fill-rule="evenodd" class="s22" d="m94.73 142.69l1.84-4.49 2.61-2.78 1.5 0.56-4.64 12.08z"/>
						<path id="&lt;Path&gt;" fill-rule="evenodd" class="s22" d="m66.7 356.19l-16.86-33.46 6.27-12.2 6.22 9.22 7.23 27.01z"/>
						<path id="&lt;Path&gt;" fill-rule="evenodd" class="s22" d="m15.81 299.35l-8.73-36.44 8.91-10.43 3.94 10.4 0.83 27.95z"/>
						<path id="&lt;Path&gt;" fill-rule="evenodd" class="s22" d="m71.59 57.33l7.58-28.03-7.26 1.12-11.9 16.44 1.91 8.46 2.77 4.31h3.05z"/>
						<path id="&lt;Path&gt;" fill-rule="evenodd" class="s22" d="m61.47 41.65l5.06-12.04-3.54-4.54-4.74 10.48 0.76 6.1z"/>
						<path id="&lt;Path&gt;" fill-rule="evenodd" class="s22" d="m182.45 66.13l-0.99-9.77-8.27-4.96-23.67-4.86-6.93 12.09 14.33 15.52z"/>
						<path id="&lt;Path&gt;" fill-rule="evenodd" class="s22" d="m138.74 177.43l10.76-47.67-8.26-4.96-23.67-4.86-6.94 12.09-8.92 45.4z"/>
						<path id="&lt;Path&gt;" fill-rule="evenodd" class="s22" d="m59.79 232.35l-16.35-9.75-6.86-21.1 4.41-4.85 8.05 1.88z"/>
						<path id="&lt;Path&gt;" fill-rule="evenodd" class="s22" d="m137.97 83.61l-24.81 2.3 4.44-16.45 4.41-4.86 8.05 1.89z"/>
						<path id="&lt;Path&gt;" fill-rule="evenodd" class="s22" d="m38.42 195.18l9.99 2.49 1.54-3.43-7.93-3.87-3.6 1.8z"/>
						<path id="&lt;Path&gt;" fill-rule="evenodd" class="s22" d="m18.81 142.9l10 2.49 1.54-3.43-7.93-3.87-3.61 1.8z"/>
						<path id="&lt;Path&gt;" fill-rule="evenodd" class="s22" d="m32.86 218.26l-9.34-54.09-6.63-3.27-2.86 34.52 6.16 8.24z"/>
						<path id="&lt;Path&gt;" fill-rule="evenodd" class="s22" d="m7.79 193.87l3.42-1.09v-12.88l-8.03-9-1.54 0.66z"/>
						<path id="&lt;Path&gt;" fill-rule="evenodd" class="s22" d="m50.51 179.36l-9.32-9.88-2.33 3.04 3.32 7.57 6.16 2.12z"/>
					</g>
					<path id="&lt;Path&gt;" fill-rule="evenodd" class="s6" d="m91.86 148.06l5.85 5.33-4.09 4.96z"/>
					<path id="&lt;Path&gt;" fill-rule="evenodd" class="s6" d="m101.49 74.15l9.98 11.93-5.39 2.72z"/>
					<path id="&lt;Path&gt;" fill-rule="evenodd" class="s6" d="m195.85 79.71l8.62 6.59-11.27-23.11z"/>
					<path id="&lt;Path&gt;" fill-rule="evenodd" class="s6" d="m32.34 234.19l10.88 5.72-1.59 2.04z"/>
					<path id="&lt;Path&gt;" fill-rule="evenodd" class="s6" d="m30.58 214.85l8.73 7.39-5.62-1.32z"/>
					<path id="&lt;Path&gt;" fill-rule="evenodd" class="s6" d="m15.91 74.15l16.57 14.73-5.67 0.82z"/>
					<g id="&lt;Group&gt;" style="mix-blend-mode: soft-light">
						<path id="&lt;Path&gt;" fill-rule="evenodd" class="s9" d="m218.1 69.53l0.89-7.23-1.72-0.95-0.97 8.18z"/>
						<path id="&lt;Path&gt;" fill-rule="evenodd" class="s9" d="m202.22 73.83l1.03-9.93-4-8.02v18.54z"/>
						<path id="&lt;Path&gt;" fill-rule="evenodd" class="s9" d="m91.04 98.65l-4.16-15.23c0 0-0.26 0.56-0.47 0.56-0.2 0 3.8 15.25 3.8 15.25z"/>
						<path id="&lt;Path&gt;" fill-rule="evenodd" class="s9" d="m126.5 59.73l-4.17-15.23c0 0-0.25 0.56-0.46 0.56-0.21 0 3.8 15.25 3.8 15.25z"/>
						<path id="&lt;Path&gt;" fill-rule="evenodd" class="s9" d="m94.01 123.47l-1.03-2.7h-1.87l1.45 3.28z"/>
						<path id="&lt;Path&gt;" fill-rule="evenodd" class="s9" d="m204.7 56.93l-1.03-2.7h-1.87l1.45 3.29z"/>
						<path id="&lt;Path&gt;" fill-rule="evenodd" class="s9" d="m54.59 346.95l-0.78-2.03h-1.4l1.09 2.47z"/>
						<path id="&lt;Path&gt;" fill-rule="evenodd" class="s9" d="m203.52 24.28l-1.04-2.7h-1.86l1.45 3.29z"/>
						<path id="&lt;Path&gt;" fill-rule="evenodd" class="s9" d="m41.05 29.33l0.39 11.44-5.87-18.38z"/>
						<path id="&lt;Path&gt;" fill-rule="evenodd" class="s9" d="m112.29 17.19h-3.02l1.51 29.63h5.69z"/>
						<path id="&lt;Path&gt;" fill-rule="evenodd" class="s9" d="m189.32 125.28l-3.95 6.38-2.87-1.12 5.25-7.01z"/>
						<path id="&lt;Path&gt;" fill-rule="evenodd" class="s9" d="m125.74 232.95l-8.05 9.45-3.46-2.15 8.57-9.54z"/>
						<path id="&lt;Path&gt;" fill-rule="evenodd" class="s9" d="m25.83 182.56l-1.1 0.77v1.08l2-1.85z"/>
						<path id="&lt;Path&gt;" fill-rule="evenodd" class="s9" d="m125.38 186.96l3.66-5.26h1.52l-3.66 5.13z"/>
						<path id="&lt;Path&gt;" fill-rule="evenodd" class="s9" d="m122.19 181.07l1.28-4.23-1.28 0.76-0.93 3.47z"/>
						<path id="&lt;Path&gt;" fill-rule="evenodd" class="s9" d="m107.38 253.1l-0.37-0.88-0.99 0.44 0.68 1.36z"/>
						<path id="&lt;Path&gt;" fill-rule="evenodd" class="s9" d="m125.38 189.39v0.59l-0.62 0.9-0.46-0.75z"/>
						<path id="&lt;Path&gt;" fill-rule="evenodd" class="s9" d="m214.78 69.53l-1.24-0.73v2.33l0.62-0.58z"/>
						<path id="&lt;Path&gt;" fill-rule="evenodd" class="s9" d="m-4.29 261.9l-0.83 3h-1.65l1.24-3z"/>
						<path id="&lt;Path&gt;" fill-rule="evenodd" class="s9" d="m-4.29 264.39l-0.55 1.6 0.28 0.19 0.27-1.28z"/>
						<path id="&lt;Path&gt;" fill-rule="evenodd" class="s9" d="m201.25 112.74l-1.38-0.66v1.17h1.13z"/>
						<path id="&lt;Path&gt;" fill-rule="evenodd" class="s9" d="m183.83 9.85l-1.38-0.66v1.17h1.13z"/>
						<path id="&lt;Path&gt;" fill-rule="evenodd" class="s9" d="m203.48 106.56l-1.43-0.59v1.24l0.72 0.47z"/>
						<path id="&lt;Path&gt;" fill-rule="evenodd" class="s9" d="m194.92 122.14l-1.43-0.58v1.24l0.72 0.46z"/>
						<path id="&lt;Path&gt;" fill-rule="evenodd" class="s9" d="m57.18 328.84l-1.07-0.43v0.93l0.53 0.34z"/>
						<path id="&lt;Path&gt;" fill-rule="evenodd" class="s9" d="m169.07 2.81l-1.42-0.58v1.24l0.71 0.46z"/>
						<path id="&lt;Path&gt;" fill-rule="evenodd" class="s9" d="m40.29 288.86l0.67-5.42-1.29-0.71-0.73 6.13z"/>
						<path id="&lt;Path&gt;" fill-rule="evenodd" class="s9" d="m28.37 292.09l0.78-7.44-3-6.02v13.9z"/>
						<path id="&lt;Path&gt;" fill-rule="evenodd" class="s9" d="m30.24 279.42l-0.78-2.03h-1.4l1.09 2.47z"/>
						<path id="&lt;Path&gt;" fill-rule="evenodd" class="s9" d="m42.92 323.63l-2.97 4.79-2.15-0.84 3.94-5.26z"/>
						<path id="&lt;Path&gt;" fill-rule="evenodd" class="s9" d="m225.43 17.85l-3.96 6.37-2.86-1.12 5.25-7z"/>
						<path id="&lt;Path&gt;" fill-rule="evenodd" class="s9" d="m37.8 288.86l-0.93-0.54v1.75l0.47-0.44z"/>
						<path id="&lt;Path&gt;" fill-rule="evenodd" class="s9" d="m101.71 197.07l-0.83 2.99h-1.66l1.24-2.99z"/>
						<path id="&lt;Path&gt;" fill-rule="evenodd" class="s9" d="m101.71 199.55l-0.56 1.61 0.28 0.19 0.28-1.29z"/>
						<path id="&lt;Path&gt;" fill-rule="evenodd" class="s9" d="m27.65 321.28l-1.04-0.49v0.87h0.85z"/>
						<path id="&lt;Path&gt;" fill-rule="evenodd" class="s9" d="m36.87 327.58l-1.07-0.44v0.93l0.53 0.35z"/>
						<path id="&lt;Path&gt;" fill-rule="evenodd" class="s9" d="m88.72 100.84l-1.48-3.43h-1.45l2 3.43z"/>
						<path id="&lt;Path&gt;" fill-rule="evenodd" class="s9" d="m127.03 42.48l-1.48-3.43h-1.45l2 3.43z"/>
						<path id="&lt;Path&gt;" fill-rule="evenodd" class="s9" d="m36.14 27.7l-2.41-7.84-3.46 0.54 3.8 7.3z"/>
						<path id="&lt;Path&gt;" fill-rule="evenodd" class="s9" d="m32.55 36.39v-1.61l-1.86-0.99 1.38 2.6z"/>
						<path id="&lt;Path&gt;" fill-rule="evenodd" class="s9" d="m7.14 151.79l2.85-2.17 0.83 1.08-2.49 1.09z"/>
						<path id="&lt;Path&gt;" fill-rule="evenodd" class="s9" d="m127.03 40.77l-2.09-7.38 2.01-0.65 1.03 8.03z"/>
						<path id="&lt;Path&gt;" fill-rule="evenodd" class="s9" d="m156.85 32.01v-4.97h0.96l-0.48 5.06z"/>
						<path id="&lt;Path&gt;" fill-rule="evenodd" class="s9" d="m155.67 30l-0.62-3.83h-0.99l0.99 3.83z"/>
						<path id="&lt;Path&gt;" fill-rule="evenodd" class="s9" d="m192.51 14.29l-1.2 6.04-3.15 1.3 3.06-7.34z"/>
						<path id="&lt;Path&gt;" fill-rule="evenodd" class="s9" d="m189.01 15.75l-0.85 2.92h-1.17l1.17-2.33z"/>
					</g>
					<g id="&lt;Group&gt;" style="opacity: .5;mix-blend-mode: soft-light">
						<path id="&lt;Path&gt;" fill-rule="evenodd" class="s2" d="m97.71-0.62l24.3 65.22 28.43-5.72-12.47-45.91 11.31 23.78 23.93-0.36-8.13-36.53z"/>
						<path id="&lt;Path&gt;" fill-rule="evenodd" class="s2" d="m100.36 20.44l16.11 36.27-8.27 1.18-21.2-35.74z"/>
						<path id="&lt;Path&gt;" fill-rule="evenodd" class="s2" d="m100.58 152.43l-2.87 0.96-5.85-5.33-15.18-61.13 17.45-19.88-8.5 4.18-6.46-15.16 8.48-3.66 18.43 38.99z"/>
						<path id="&lt;Path&gt;" fill-rule="evenodd" class="s2" d="m26.73 134l-13.55 27.91 17.09 19.79 12.54-12.22-13.22-20.35 3.36-1.07 7.77 12.84 6-3.05z"/>
						<path id="&lt;Path&gt;" fill-rule="evenodd" class="s2" d="m20.48 122.41l-15.67 12.54-4.46-14.39-0.51-23.85z"/>
						<path id="&lt;Path&gt;" fill-rule="evenodd" class="s2" d="m-0.7 144.81l7.78-8.33 3.08 1.53-10.65 15.2z"/>
						<path id="&lt;Path&gt;" fill-rule="evenodd" class="s2" d="m30.58 359.97l-9.82-43.09 19.19-3.24 6.77 39.23 4.66-0.84-4.66-20.34 16.42 1.67 12.58 26.46z"/>
						<path id="&lt;Path&gt;" fill-rule="evenodd" class="s2" d="m44.19 327.39l-3.83-19.78h2.56l4.42 19.53z"/>
						<path id="&lt;Path&gt;" fill-rule="evenodd" class="s2" d="m54.59 328.42l-3.05-6.1h5.1l0.54 6.52z"/>
						<path id="&lt;Path&gt;" fill-rule="evenodd" class="s2" d="m213.54 93.24l2.52-42.82 6.75 1.99-2.87 45.73z"/>
						<path id="&lt;Path&gt;" fill-rule="evenodd" class="s2" d="m212.18 82.6l1.36-20.31-5.01-4.4-1.66 20.51z"/>
					</g>
					<path id="&lt;Path&gt;" fill-rule="evenodd" class="s20" d="m77.31 89.44l8.48-7.97 14.33-3.07-1.3-2.35-8.54 3.82-6.82 2.08-5.5 5.32-1.28-0.34z"/>
					<path id="&lt;Path&gt;" fill-rule="evenodd" class="s20" d="m96.59 60.61l29.71-19.23 6.29-4.07 24.74-5.21 17.85-5.93 10.73-8.4 0.58 3.63-5.33 0.92-6.42 4.72-19.07 6.22-22.33 5.49-17.03 9.96-19.2 13.17z"/>
					<path id="&lt;Path&gt;" fill-rule="evenodd" class="s20" d="m10.16 195.27l1.05-2.49 23.12-9.29 1.95-5.14 11.12-7.45 4.98-0.69-1.07-2.64-4.32 2.66-11.94 7.52-1.73 3.28-4.84 4.36-18.32 7.39-1.98 0.25z"/>
					<path id="&lt;Path&gt;" fill-rule="evenodd" class="s20" d="m53.53 207.15l-13.5-5.08-14.08 0.78-3.69 0.82-4.97-1.6 2.64 3.18 3.25-1.48 2.97-0.66 13.45-0.6 4.83 1.57 9.36 4.13z"/>
					<path id="&lt;Path&gt;" fill-rule="evenodd" class="s20" d="m43.22 239.91l-16.49-17.67-18.55-9.9-3.63-1.02-2.31-2.29 6.38 2.95 17.33 8.72z"/>
					<path id="&lt;Path&gt;" fill-rule="evenodd" class="s20" d="m167.26 70.7l5.95-16.67 4.11-7.62 10.55-3.31 0.3 2.72-6.29-0.23-4.56 2.02-4.11 9.1-5.35 16.48z"/>
					<path id="&lt;Path&gt;" fill-rule="evenodd" class="s20" d="m148.43 167.57l-1.13 6.44 1.65 7.41 3.37-8-3.68-1.81z"/>
					<path id="&lt;Path&gt;" fill-rule="evenodd" class="s20" d="m75.02 202.37l11.98-10.86 2.51 1.45 10.34 14.19 5.63 42.49 7.55 5.08 1.2-2.1-1.98 0.5-6.23-3.72-0.72-3.52-4.84-40.74-2.03-3.79-5.49-5.05-3.13-4.79-3.36-1.38-5.5 5.55-6.98 4.69z"/>
					<path id="&lt;Path&gt;" fill-rule="evenodd" class="s20" d="m103.47 122.9l-10.91-5-8.56-4.15-13.17 12.88-11.04 37.82-2.15 2.08-6.33 1.04 1.07 2.64 5.44-2.64 2.53-2.99 10.28-35.5 2.32-3.31 9.8-9.62h4.22l12.12 5.07 4.11 2.59z"/>
					<path id="&lt;Path&gt;" fill-rule="evenodd" class="s20" d="m56.17 312.43l-6.64-1.15-14.58-11.12-8.8-5.67-6.54 0.67-2.74 2.36v5.58l2.08-5.58 1.51-1.7 12.03 3.54 4.85 3.56 12.5 9.11 4.67 1.61 1.66-0.29z"/>
					<path id="&lt;Path&gt;" fill-rule="evenodd" class="s20" d="m43.95 7.85l6.73 2.06h9.95l6.63 4.34 5.7 0.43 1.24 3.54-2.76-3.04h-3.04l-2.15-0.93-7.17-3.46-7.54-0.63-1.42 0.16-5.67-1.03z"/>
					<path id="&lt;Path&gt;" fill-rule="evenodd" class="s13" d="m54.59 369.55l-0.23 14.61-2.82-0.34 1.96-14.64-4.46-4.78-22.23-4.83-19.71-13.42 1.88-9.44-2.7-68.27-3.03-16.99-3.25-9.05-1.15-16.2 4.18 19.68 2.37 8.84 2.38 1.03 5.38 77.61 2.47 8.65 9.64 8.78 12.51 9.18 13.16 4.43 3.42 3.99z"/>
					<path id="&lt;Path&gt;" fill-rule="evenodd" class="s13" d="m-1.15 226.2l5.7-14.88 4.07 0.66 18.11 10.26 11.34 11.95-9.51-10.65-1.23-2.51-2.37-1.09-1.2-1.68h-2.46l-12.51-7.54-3.79-2.22-3.36-0.29 1.53 3.82-1.53 6.23z"/>
					<path id="&lt;Path&gt;" fill-rule="evenodd" class="s10" d="m8.98 336.71l4-6.06-0.87-12.56-3.76 2.7z"/>
					<path id="&lt;Path&gt;" fill-rule="evenodd" class="s11" d="m8.24 318.09l3.74-1.76-0.27-3.9-3.54 3.9z"/>
					<path id="&lt;Path&gt;" fill-rule="evenodd" class="s11" d="m14.57 351.55l6.19-4.47 9.48 7.35-4.29 4.09c0 0-11.18-7.82-11.38-6.97z"/>
					<path id="&lt;Path&gt;" fill-rule="evenodd" class="s11" d="m30.58 359.97l5.22-1.45 0.99 0.72-5.83 1.23-1.69-0.5z"/>
					<path id="&lt;Path&gt;" fill-rule="evenodd" class="s10" d="m41.41 173.75l9.9-6.18 6.33-1.04 2.15-2.08 3.85-11.24-3.29 11.37-2.59 3.6-6.45 2.03z"/>
					<path id="&lt;Path&gt;" fill-rule="evenodd" class="s11" d="m46.99 170.23l1.19 1.09 3.54-1.24-1.21-2.01z"/>
					<path id="&lt;Path&gt;" fill-rule="evenodd" class="s11" d="m53.88 169.4v-1.33l0.64-0.5 0.56 1.45z"/>
					<path id="&lt;Path&gt;" fill-rule="evenodd" class="s11" d="m55.22 168.71l-0.48-1.7 0.71-0.12 0.11 1.64z"/>
					<path id="&lt;Path&gt;" fill-rule="evenodd" class="s11" d="m60.09 163.56l0.58-0.08 1.42-4.93h-0.28z"/>
					<path id="&lt;Path&gt;" fill-rule="evenodd" class="s11" d="m59.93 164.02l0.47 0.39-0.33 0.55-0.28-0.51z"/>
					<path id="&lt;Path&gt;" fill-rule="evenodd" class="s21" d="m132.59 37.31l0.75 1.44 14.68-3.61v-1.03z"/>
					<path id="&lt;Path&gt;" fill-rule="evenodd" class="s21" d="m167.86 73.19l0.99-6.96-1.59 4.47z"/>
					<path id="&lt;Path&gt;" fill-rule="evenodd" class="s21" d="m150.24 34.6v-1.01l1.5-0.31v0.94z"/>
					<path id="&lt;Path&gt;" fill-rule="evenodd" class="s21" d="m34.33 183.49l0.72-5.74-1.73 3.28-4.65 4.19-0.98 0.49 0.29 0.33z"/>
					<path id="&lt;Path&gt;" fill-rule="evenodd" class="s21" d="m76.68 86.93l-0.84 6.52 1.47-4.01 2.01-2.17 0.45-1.75-1.81 1.75z"/>
					<path id="&lt;Path&gt;" fill-rule="evenodd" class="s21" d="m20.46 295.82l2.4 0.71 0.46-1.75-3.54 0.36-2.91 2.38-1.69 0.69-3.97 6.33 0.25 1.2 5.81-2.82z"/>
					<path id="&lt;Path&gt;" fill-rule="evenodd" class="s21" d="m49.84 312.03l0.59-0.59 5.74 0.99v0.92l-1.66 0.29z"/>
					<path id="&lt;Path&gt;" fill-rule="evenodd" class="s21" d="m186.49 21.4l-5.33 0.92 4.75-4.55 4.43-1.26z"/>
					<path id="&lt;Path&gt;" fill-rule="evenodd" class="s10" d="m188.17 45.82l-6.29-0.23-4.56 2.02 2.28-1.91 9.41-2.92 1.19 1.72z"/>
					<path id="&lt;Path&gt;" fill-rule="evenodd" class="s13" d="m167.86 73.19l3.99 16.51-7.22 13.67-1.7 9.88-4.77 13.38 9.55-40.72-0.45-15.21z"/>
					<path id="&lt;Path&gt;" fill-rule="evenodd" class="s11" d="m167.56 80.67h2.11l0.66 2.75-2.77 1.23z"/>
					<path id="&lt;Path&gt;" fill-rule="evenodd" class="s11" d="m167.56 87.21l0.5-1.18 1.33-0.52 0.47 0.97z"/>
					<path id="&lt;Path&gt;" fill-rule="evenodd" class="s11" d="m167.26 88.79h0.49l-0.25 0.5-0.66 0.32z"/>
				</g>
			</g>
		</g>
	</g>
</svg>