<svg version="1.2" xmlns="http://www.w3.org/2000/svg" viewBox="0 0 1200 400" width="7349" height="2449.6666666666665">
	<defs>
		<linearGradient id="g1" x2="1" gradientUnits="userSpaceOnUse" gradientTransform="matrix(7.597,-159.096,-180.887,-8.638,619.269,294.056)">
			<stop offset="0" stop-color="#8b1025"/>
			<stop offset=".221" stop-color="#690f29"/>
			<stop offset="1" stop-color="#460e2e"/>
		</linearGradient>
		<linearGradient id="g2" x2="1" gradientUnits="userSpaceOnUse" gradientTransform="matrix(.823,-17.24,-7.731,-0.369,459.377,297.307)">
			<stop offset="0" stop-color="#5c1025"/>
			<stop offset="1" stop-color="#460e2e"/>
		</linearGradient>
		<linearGradient id="g3" x2="1" gradientUnits="userSpaceOnUse" gradientTransform="matrix(.944,-19.766,-19.013,-0.908,614.75,319.4)">
			<stop offset="0" stop-color="#5c1025"/>
			<stop offset="1" stop-color="#460e2e"/>
		</linearGradient>
		<linearGradient id="g4" x2="1" gradientUnits="userSpaceOnUse" gradientTransform="matrix(1.854,-38.829,-29.619,-1.414,512.329,141.65)">
			<stop offset="0" stop-color="#5c1025"/>
			<stop offset="1" stop-color="#460e2e"/>
		</linearGradient>
		<linearGradient id="g5" x2="1" gradientUnits="userSpaceOnUse" gradientTransform="matrix(0,-6.65,-8.62,0,525.572,307.188)">
			<stop offset="0" stop-color="#5c1025"/>
			<stop offset="1" stop-color="#460e2e"/>
		</linearGradient>
		<linearGradient id="g6" x2="1" gradientUnits="userSpaceOnUse" gradientTransform="matrix(-6.357,-13.513,-11.938,5.616,595.311,277.584)">
			<stop offset="0" stop-color="#5c1025"/>
			<stop offset="1" stop-color="#460e2e"/>
		</linearGradient>
		<linearGradient id="g7" x2="1" gradientUnits="userSpaceOnUse" gradientTransform="matrix(0,-11.412,-13.315,0,548.714,121.113)">
			<stop offset="0" stop-color="#5c1025"/>
			<stop offset="1" stop-color="#460e2e"/>
		</linearGradient>
		<linearGradient id="g8" x2="1" gradientUnits="userSpaceOnUse" gradientTransform="matrix(0,-14.913,21.343,0,450.455,269.085)">
			<stop offset="0" stop-color="#5c1025"/>
			<stop offset="1" stop-color="#460e2e"/>
		</linearGradient>
		<linearGradient id="g9" x2="1" gradientUnits="userSpaceOnUse" gradientTransform="matrix(0,-33.467,31.437,0,417.079,200)">
			<stop offset="0" stop-color="#5c1025"/>
			<stop offset="1" stop-color="#460e2e"/>
		</linearGradient>
		<linearGradient id="g10" x2="1" gradientUnits="userSpaceOnUse" gradientTransform="matrix(0,-13.615,12.436,0,385.401,163.046)">
			<stop offset="0" stop-color="#5c1025"/>
			<stop offset="1" stop-color="#460e2e"/>
		</linearGradient>
		<linearGradient id="g11" x2="1" gradientUnits="userSpaceOnUse" gradientTransform="matrix(0,-13.807,11.393,0,603.458,236.87)">
			<stop offset="0" stop-color="#5c1025"/>
			<stop offset="1" stop-color="#460e2e"/>
		</linearGradient>
		<linearGradient id="g12" x2="1" gradientUnits="userSpaceOnUse" gradientTransform="matrix(0,-3.841,1.788,0,605.771,242.6)">
			<stop offset="0" stop-color="#5c1025"/>
			<stop offset="1" stop-color="#460e2e"/>
		</linearGradient>
		<linearGradient id="g13" x2="1" gradientUnits="userSpaceOnUse" gradientTransform="matrix(0,-12.214,9.225,0,605.789,281.161)">
			<stop offset="0" stop-color="#5c1025"/>
			<stop offset="1" stop-color="#460e2e"/>
		</linearGradient>
	</defs>
	<style>
		.s0 { fill: url(#g1) } 
		.s1 { fill: #923240 } 
		.s2 { fill: url(#g2) } 
		.s3 { fill: url(#g3) } 
		.s4 { fill: #7a3240 } 
		.s5 { opacity: .5;mix-blend-mode: multiply;fill: #ae9aff } 
		.s6 { fill: url(#g4) } 
		.s7 { fill: #1d4aff } 
		.s8 { fill: #008cff } 
		.s9 { fill: #54c3ff } 
		.s10 { fill: #00e5ff } 
		.s11 { fill: url(#g5) } 
		.s12 { fill: url(#g6) } 
		.s13 { fill: url(#g7) } 
		.s14 { fill: url(#g8) } 
		.s15 { fill: url(#g9) } 
		.s16 { fill: url(#g10) } 
		.s17 { fill: url(#g11) } 
		.s18 { fill: url(#g12) } 
		.s19 { fill: url(#g13) } 
		.s20 { fill: #a43e38 } 
		.s21 { fill: #d0c0cc } 
		.s22 { opacity: .5;mix-blend-mode: multiply;fill: #7c364c } 
	</style>
	<g id="space background">
		<g id="&lt;Group&gt;">
			<g id="&lt;Clip Group&gt;">
				<g id="3">
					<path id="&lt;Path&gt;" fill-rule="evenodd" class="s0" d="m572.66 274.43l12.65-16.33 7.06-22.34-0.07-1.68-9.91 15.84 5.19-11.5 14.96-23.87-1.9-6.45-3.08-2.26-2.17-33.24-3.35-8.98-54.66-31.93-4.54-1.22-3.58 10.79 12.81 12.54-12.81-12.54-1.85-0.91-6.45 9.01-41.05 0.09-1.97 0.51-13.18 12.94 10.62 72.17-3.95 1.11 3.95 24.74-0.55 0.53 15.36 13.15 46.81 15.53 27.1-6.61 9.04-7.7z"/>
					<path id="&lt;Path&gt;" fill-rule="evenodd" class="s1" d="m537.38 131.69l31.3 18.29-26.31-6.31 28.84 27.77-17.24-5.54-24.71-24.64 3.58-10.79z"/>
					<path id="&lt;Path&gt;" fill-rule="evenodd" class="s1" d="m527.41 140.35l5.78 8.82 8.09 10.02-5.98-4.98 2.62 5.29 9.13 30.99 1.97 51.43-9 4.38-20.67-56.58 12.48 47.67-1.59 0.43-8.52-25.12-15.16-21.74 7.41 22.61-23.36 17.4-4.22 1.19-2.64-48.23-1.66 34.85-5.53 0.85-11.8-56.73 13.18-12.94 36.72-1.11 2.65-0.49 6.96-3.47z"/>
					<path id="&lt;Path&gt;" fill-rule="evenodd" class="s1" d="m475.38 235.07l36.09 23.33 7.98 14.88-16.52-16.02 4.81 9.19-26.53-13.12-9.78-17.15z"/>
					<path id="&lt;Path&gt;" fill-rule="evenodd" class="s1" d="m506.5 250.35l-14.51-12.65 7.43 2.68z"/>
					<path id="&lt;Path&gt;" fill-rule="evenodd" class="s1" d="m542.06 256.19l-4.79-7.57-24.91-8.71 20.86 16.7z"/>
					<path id="&lt;Path&gt;" fill-rule="evenodd" class="s1" d="m533.48 282.09l-16.75-8.94 5.1 4.78z"/>
					<path id="&lt;Path&gt;" fill-rule="evenodd" class="s2" d="m475.15 289.3l-9.93-8.99-24.93-1.19-3.61 8.83 25.33 9.48 12.89-2.94z"/>
					<path id="&lt;Path&gt;" fill-rule="evenodd" class="s3" d="m595.38 309.91l8.57-10.84 12.36 3.83-0.55 11.46-20.79 4.1z"/>
					<path id="&lt;Path&gt;" fill-rule="evenodd" class="s4" d="m602.54 214.55l-6.45 1.67-4.28 0.4 5.75-10.78 3.08 2.26z"/>
					<path id="&lt;Path&gt;" fill-rule="evenodd" class="s1" d="m541.2 160.8l7.55 26.64 8.6 3.09 0.22-4.53-14.63-25.12z"/>
					<path id="&lt;Path&gt;" fill-rule="evenodd" class="s5" d="m592.04 163.62l-3.43 8.65-17.4-0.83-17.24-5.54-9.97-9.94-0.07 1.64 11.37 10.93 2.27 17.47-0.22 4.53-8.6-3.09 0.66 1.12 2.1 1.19-4.46 0.74 1.97 51.43-9 4.38-5.1-13.96-1.12 12.61-1.75 0.97-0.04 0.86 5.26 1.84 3.62 7.63-7.67 0.36 0.26 25.48-12.09-1.47-21.03-4.96-10.17-1.06 46.81 15.53 27.1-6.61 9.04-7.7-0.99-1.32 13.16-16.4-1.66-1.37-18.06 16.81 16.8-23.62 5.19-11.5 14.96-23.87-7.41 1.53-3.32 0.54 5.75-10.78-2.17-33.24z"/>
					<path id="&lt;Path&gt;" fill-rule="evenodd" class="s6" d="m518.96 140.99l4.54-9.94-3.17-18.74-32.21-10.73-14.35 2.51 4.48 27.77 14.85 5.39 0.89 2.54 21.54 2.01z"/>
					<path id="&lt;Path&gt;" fill-rule="evenodd" class="s1" d="m488.12 101.58l23.15 9.14-9.54-2.1 11.32 9.25 2.82 10.77-11.68 4.46-22.63-9.62 15.44 8.43-18.75-0.05-4.48-27.77z"/>
					<path id="&lt;Path&gt;" fill-rule="evenodd" class="s1" d="m493.1 137.25l11.41 1.19 0.76 0.91-11.28 0.44z"/>
					<path id="&lt;Path&gt;" fill-rule="evenodd" class="s5" d="m478.25 131.86l18.75 0.05-3.55-1.94-0.44-1.62 11.18 4.75 9.82-3.75 1.18-3.32 8.31 5.02-4.54 9.94-3.43 0.81-21.54-2.01-0.89-2.54z"/>
					<path id="&lt;Path&gt;" fill-rule="evenodd" class="s1" d="m475.15 289.3l-15.02 1.64-18.16-6.16 14.87 6.81-7.78-1.18-11.39-4.87 2.62-6.42 24.93 1.19z"/>
					<path id="&lt;Path&gt;" fill-rule="evenodd" class="s1" d="m616.31 302.9l-6.02 8.14-15.12 3.13 0.21-4.26 8.57-10.84z"/>
					<path id="&lt;Path&gt;" fill-rule="evenodd" class="s1" d="m611.47 311.23c-0.13 0.03-12.69 3.49-12.69 3.49l7-0.04z"/>
					<path id="&lt;Path&gt;" fill-rule="evenodd" class="s4" d="m591.2 232.65l1.17 3.11-5.58 14.84 0.09-1.7-3.23 7.83-17.32 16.85 14.61-32.72z"/>
					<path id="&lt;Path&gt;" fill-rule="evenodd" class="s7" d="m591.2 232.65l-10.26 8.21-17.72 31.66-13.47 6.27-1.55 4 1.54 4.23-5.47 1.33 2.73-4.14 1.34-3.67 1.54-3.41 0.82-14.19-13.43-14.32-5.72-2-14.15-4.94 1.24-8.44-1.11-15.6-2.81-14.72 7.59 10.38 2.11 16.16-4.58 4.66-0.47 3.65 1.59 3.76 14.81 5.54 3.99 0.58 8.42 11.9 3.23 2.79 0.67 10.56 4.09 1.19 6.3-2.12 17.54-30.96 1.78-1.61 11.17-9.56z"/>
					<path id="&lt;Path&gt;" fill-rule="evenodd" class="s7" d="m597.56 205.84l-5.75 10.78-10.87 4.78-18.8 2.68-9.53-7.18-5.56-26.41-8.82-29.92-2.93-6.36 4.93 4.11-2.1-3.97-7.25-11.48 13.12 13.09-1.06 4.92 1.2 8.37 5.27 19.31 3.4 2.88-1.87 10.37 3.34 13.64 17.12 6.33 8.63-0.57 0.94-0.39 14.21-12.1 2.15-6.35z"/>
					<path id="&lt;Path&gt;" fill-rule="evenodd" class="s7" d="m517.4 241.68l-5.04-1.77-0.36 7.47 4.27 18.12 4.2 9.64-3.74-1.99 5.34 7.55 2.03 4.04 7.63 3.64-10.68-3.54 1.06-1.7-0.84-3.06-5.33-6.97-0.57-2.42-0.3-1.66 2.69 1.88 0.03-0.69-1.63-3.96-0.61-1.66-4-17.25 0.41-4.4-1.56-4.74 6.13 0.3 1.54-1.4z"/>
					<path id="&lt;Path&gt;" fill-rule="evenodd" class="s8" d="m524.31 228.6l-1.16 1.6-3.56 3.08-1-0.65-0.26-11.1-0.37-5.86-0.64-9.4 4.99 7.03z"/>
					<path id="&lt;Path&gt;" fill-rule="evenodd" class="s8" d="m566.97 222.62l0.63-1.93-13.72-5.23-1.36 1.04 9.93 7.1z"/>
					<path id="&lt;Path&gt;" fill-rule="evenodd" class="s8" d="m568.3 222.76l1.07-1.73 1.51 0.96-0.5 0.57z"/>
					<path id="&lt;Path&gt;" fill-rule="evenodd" class="s8" d="m558.94 273.22l-0.05 1.13-6.14 2.7-1.63-0.08 0.21-4.38 5.15 1.17z"/>
					<path id="&lt;Path&gt;" fill-rule="evenodd" class="s8" d="m551.81 272.39l-1.38-0.35 0.14-2.95 1.05 0.05z"/>
					<path id="&lt;Path&gt;" fill-rule="evenodd" class="s8" d="m593.91 209.8l1.06 0.89-3.66 6.15-4.92 2.16-1.15-1.82z"/>
					<path id="&lt;Path&gt;" fill-rule="evenodd" class="s9" d="m585.62 219.34l-0.94-1.68-1.18 1 0.51 1.39z"/>
					<path id="&lt;Path&gt;" fill-rule="evenodd" class="s9" d="m548.37 184.75l-3.41-1.35-3.04-10.31 3.93 1.95z"/>
					<path id="&lt;Path&gt;" fill-rule="evenodd" class="s9" d="m543.56 165.19l-4.68-2.43 0.06-1.4 4.09 1.79z"/>
					<path id="&lt;Path&gt;" fill-rule="evenodd" class="s9" d="m523.67 222.88l-3.25-9.05 0.14-2.99 1.75 2.46z"/>
					<path id="&lt;Path&gt;" fill-rule="evenodd" class="s9" d="m521.72 225.2l-1.13-3.11-2.29-1.17 1.61 4.2z"/>
					<path id="&lt;Path&gt;" fill-rule="evenodd" class="s9" d="m534.58 247.68l0.05-1.03-6.86-2.57-0.06 1.2z"/>
					<path id="&lt;Path&gt;" fill-rule="evenodd" class="s9" d="m525.84 244.62l-0.76-1.55-1.25-0.47 0.52 1.5z"/>
					<path id="&lt;Path&gt;" fill-rule="evenodd" class="s9" d="m559.17 274.09l0.28-0.84 1.75-0.57 0.24 0.66z"/>
					<path id="&lt;Path&gt;" fill-rule="evenodd" class="s10" d="m566.69 222.68l0.91-1.99 1.77 0.34-0.61 1.75z"/>
					<path id="&lt;Path&gt;" fill-rule="evenodd" class="s10" d="m516.36 270.42l0.82 1.23-0.23 0.64-1.31-2.41z"/>
					<path id="&lt;Path&gt;" fill-rule="evenodd" class="s10" d="m518.21 273.22l0.28-0.64 0.21 0.16-0.03 0.5z"/>
					<path id="&lt;Path&gt;" fill-rule="evenodd" class="s10" d="m551.58 277.25l-0.11-3.02-0.45-0.02-0.52 2.73z"/>
					<path id="&lt;Path&gt;" fill-rule="evenodd" class="s10" d="m548.74 285.82l-0.52-1.44-0.5 0.69 0.48 1.06z"/>
					<path id="&lt;Path&gt;" fill-rule="evenodd" class="s7" d="m506.56 190.96l-3.89-7.75-3.18-14.61-10.41-15.59 0.17-3.58-2.77 0.13 1.93 3.74 10.59 17.48 3.43 13.91 5.65 10.91 6.64 7.32z"/>
					<path id="&lt;Path&gt;" fill-rule="evenodd" class="s7" d="m473.31 235.48l1.49-4.34 5.26 6.95 21.27 12.69 9.54 6.99 2.06 0.82 1.24 0.06 0.84 3.62-4.55-4.52-6.86-4.83z"/>
					<path id="&lt;Path&gt;" fill-rule="evenodd" class="s7" d="m512.04 246.61l-2.15 2.25-5.25 0.71-5.69 0.67 3.83 2.11 0.66-1.62 5.16-1.19 2.16-0.1 1.97 1.05z"/>
					<path id="&lt;Path&gt;" fill-rule="evenodd" class="s7" d="m549.41 260.62l8.96-6.56 9.75-0.77 7.89-3.63-4.02 5.49-1.54-1.39-2.81 0.06-8.65 0.75-7.29 5.56-0.79 1.78z"/>
					<path id="&lt;Path&gt;" fill-rule="evenodd" class="s7" d="m503.54 133.1l1.73 2.35 9.47 6.28-4.71-0.44 0.18-0.94-5.12-3.98-8.51-4.74-6.04-3.24-1.5-1.73z"/>
					<path id="&lt;Path&gt;" fill-rule="evenodd" class="s7" d="m511.07 130.47l-0.25 4.11-1.14 2.01v1.78l-2.2-1.45 1.8-0.31 1.29-2.41-0.24-2.88-0.53-0.44z"/>
					<path id="&lt;Path&gt;" fill-rule="evenodd" class="s9" d="m499.98 133.53l-0.44-2.21-3.05-1.35 0.09 1.66z"/>
					<path id="&lt;Path&gt;" fill-rule="evenodd" class="s9" d="m495.61 130.47l-0.62-1.17-2.15-0.95 1.15 1.44z"/>
					<path id="&lt;Path&gt;" fill-rule="evenodd" class="s9" d="m509.68 138.37l-0.85-1.49 0.45-0.27 0.4-0.02z"/>
					<path id="&lt;Path&gt;" fill-rule="evenodd" class="s11" d="m522.79 305.62l1.04-1.79-2.77-3.29-2.36 4.61 2.36 2.04z"/>
					<g id="&lt;Group&gt;">
						<path id="&lt;Path&gt;" fill-rule="evenodd" class="s12" d="m577.99 276.12l2.46-8.05 7.75-3.64 4.79 3.86-1.16 1.53 2.45 1.22 1.58 6.29-10.14 4.76-6.73-3.86z"/>
						<path id="&lt;Path&gt;" fill-rule="evenodd" class="s1" d="m592.99 268.29l-7.11 3.59-6.3 2.28 0.87-6.09 8.23-3.87z"/>
						<path id="&lt;Path&gt;" fill-rule="evenodd" class="s1" d="m594.28 271.04l-1.94 4.18-6.56 3.09-5.65-1.62 11.7-6.87z"/>
					</g>
					<path id="&lt;Path&gt;" fill-rule="evenodd" class="s1" d="m521.06 300.54l2.45 2.92-1.55 1.89-2.39 0.55-0.87-0.75 1.74-4.1z"/>
					<g id="&lt;Group&gt;">
						<path id="&lt;Path&gt;" fill-rule="evenodd" class="s13" d="m541.34 121.11l5.01-1.96 0.6-3.16-2.26-3.81-2.17 2.64 1.09-3.88-4.9-1.24-1.54 8.8z"/>
						<path id="&lt;Path&gt;" fill-rule="evenodd" class="s1" d="m543.61 110.94l-2.27 4.47-3.88 1.45 1.25-7.16 0.76-0.96z"/>
						<path id="&lt;Path&gt;" fill-rule="evenodd" class="s1" d="m544.69 112.18l-2.17 2.64-1.18 2.04 0.72 2.29 2.41-0.51 2.48-2.65z"/>
					</g>
					<path id="&lt;Path&gt;" fill-rule="evenodd" class="s14" d="m457.95 266.06l-2.03-5.57 4.76-6.32 5.66 5.95-1.58 4.2h1.58l-0.81 4.77z"/>
					<path id="&lt;Path&gt;" fill-rule="evenodd" class="s15" d="m416.13 189.65l-1.15-15.15 19.31-7.97 16.32 25.52-4.11 7.95-23.43-3.24z"/>
					<path id="&lt;Path&gt;" fill-rule="evenodd" class="s16" d="m391.51 162.88l-7.19-8.64-0.15-4.81 14.9 6.72-2.04 6.21-4.35 0.69z"/>
					<path id="&lt;Path&gt;" fill-rule="evenodd" class="s17" d="m600.79 236.87l4.34-10.24 8.57-3.57 3.82 2.14-14.09 11.67z"/>
					<path id="&lt;Path&gt;" fill-rule="evenodd" class="s18" d="m602.54 241.5l3.96-2.74 4.29 0.72-4.29 3.12h-3.07z"/>
					<path id="&lt;Path&gt;" fill-rule="evenodd" class="s19" d="m602.32 279.4l4.46-7.54 10.74-2.91 0.97 7.45-9.83 4.76z"/>
					<path id="&lt;Path&gt;" fill-rule="evenodd" class="s1" d="m606.78 271.86l-3.03 5.11 3.66 1.34 8.9-3.49-0.9-1.43-2.45 0.87 4.79-3.52-0.23-1.79z"/>
					<path id="&lt;Path&gt;" fill-rule="evenodd" class="s1" d="m606.5 238.76l3.14 0.53-3.66 2.66-2.55 0.65-0.89-1.1z"/>
					<path id="&lt;Path&gt;" fill-rule="evenodd" class="s1" d="m600.79 236.87h1.75l9.03-9.02-0.78-0.52-4.13 3.08 6.67-6.33 0.37-1.02-8.57 3.57z"/>
					<path id="&lt;Path&gt;" fill-rule="evenodd" class="s1" d="m612.4 227.68l3.25-2.56-0.17-0.68-3.48 3.24z"/>
					<path id="&lt;Path&gt;" fill-rule="evenodd" class="s1" d="m460.68 254.17l-3.98 5.28 4.43 6.34 2.86 0.25 0.77-2.24-0.74-3.69 1.26 1.52 1.06-1.51z"/>
					<path id="&lt;Path&gt;" fill-rule="evenodd" class="s1" d="m465.03 264.32l-0.76 2.04 1.46 1.55 0.61-3.59z"/>
					<path id="&lt;Path&gt;" fill-rule="evenodd" class="s1" d="m414.98 174.5l12.57 18.03 16.48 4.82 1.14-0.91-7.21-13.96 7.79 10.53 4.86-0.96-13.73-22.8-2.59-2.72z"/>
					<path id="&lt;Path&gt;" fill-rule="evenodd" class="s1" d="m384.17 149.43l1.08 4.33 7.43 7.44 4.53 0.61 1.86-4.83v-0.83z"/>
					<g id="&lt;Group&gt;" style="opacity: .5;mix-blend-mode: soft-light">
						<path id="&lt;Path&gt;" fill-rule="evenodd" class="s20" d="m496.88 154.31l9.76 53.44-11.13 7.39-7.95-49.17 0.82 17.37-4.66 1.32-4.44-17.61-12.94-2.58 10.56-13.49z"/>
						<path id="&lt;Path&gt;" fill-rule="evenodd" class="s20" d="m504.39 168.25l-4.41-18.05 8.07 0.39 9.2 22.22-3.48-0.17-5.81-10.15 2.04 6.03z"/>
						<path id="&lt;Path&gt;" fill-rule="evenodd" class="s20" d="m512.44 117.37l-17.82-11.91-7.97 2.67 21.48 15.33z"/>
						<path id="&lt;Path&gt;" fill-rule="evenodd" class="s20" d="m444.72 190.12l-17.82-11.91-7.97 2.67 11.01 12.13z"/>
						<path id="&lt;Path&gt;" fill-rule="evenodd" class="s20" d="m505.09 123.31l-9.48-6.76-3.15 0.61 7.34 8.14z"/>
						<path id="&lt;Path&gt;" fill-rule="evenodd" class="s20" d="m542.8 197.26l-7.91-34.5-4.95-0.24 6.2 33.46z"/>
						<path id="&lt;Path&gt;" fill-rule="evenodd" class="s20" d="m535.68 205.53l-5.21-25.92-6.61 1.26 7 27.31z"/>
						<path id="&lt;Path&gt;" fill-rule="evenodd" class="s20" d="m533.22 256.61l-2.32-10.22-18.54-6.48z"/>
						<path id="&lt;Path&gt;" fill-rule="evenodd" class="s20" d="m502.06 252.32l-6.49-0.31-13.36-8.47 3.97 5.15-7.42 0.34-7.33-12.85 3.95-1.11z"/>
						<path id="&lt;Path&gt;" fill-rule="evenodd" class="s20" d="m462.78 280.14l9.21 6.28-7.57 1.97-18.53-5.43 1.46-3.56z"/>
						<path id="&lt;Path&gt;" fill-rule="evenodd" class="s20" d="m481.72 180.99l-4.06-12.3-8.66-1.09 5.09 14.88z"/>
					</g>
					<g id="&lt;Group&gt;" style="mix-blend-mode: soft-light">
						<path id="&lt;Path&gt;" fill-rule="evenodd" class="s21" d="m507.55 188.71l-1.41-10.26-4.42-2.7 3.76 12.3z"/>
						<path id="&lt;Path&gt;" fill-rule="evenodd" class="s21" d="m512.02 193.01l-1.57-3.49-1.29 0.62 1.37 2.8z"/>
						<path id="&lt;Path&gt;" fill-rule="evenodd" class="s21" d="m490.76 222.66l0.31-6.47-2.87-2.37 1.07 8.77z"/>
						<path id="&lt;Path&gt;" fill-rule="evenodd" class="s21" d="m487.97 218.63l0.08-1.67-0.5-0.02 0.17 1.68z"/>
						<path id="&lt;Path&gt;" fill-rule="evenodd" class="s21" d="m543.1 234.4l-2.82-5.65-2.32-0.11 3.07 5.66z"/>
						<path id="&lt;Path&gt;" fill-rule="evenodd" class="s21" d="m549 181.54l-2.05-7.31-1.1 0.81 2.4 6.46z"/>
						<path id="&lt;Path&gt;" fill-rule="evenodd" class="s21" d="m550.35 184.07l-0.46-2.49 1.35 0.06 0.58 1.77z"/>
						<path id="&lt;Path&gt;" fill-rule="evenodd" class="s21" d="m542.58 185.75l0.03-0.69-1.23-0.64 0.57 1.3z"/>
						<path id="&lt;Path&gt;" fill-rule="evenodd" class="s21" d="m513.52 161.74l1.22-3.33-1.82-1.39-0.72 0.9z"/>
						<path id="&lt;Path&gt;" fill-rule="evenodd" class="s21" d="m515.35 160.91l0.65 0.03 0.68 0.95-1.4 0.47z"/>
						<path id="&lt;Path&gt;" fill-rule="evenodd" class="s21" d="m479.09 173.03l-0.93-2.81-2.6-0.12 1.67 3.36z"/>
						<path id="&lt;Path&gt;" fill-rule="evenodd" class="s21" d="m478.78 190.7l-0.49-1.01-0.84-0.04 0.65 1.02z"/>
						<path id="&lt;Path&gt;" fill-rule="evenodd" class="s21" d="m499.04 258.15l-1.91-2.51-2.34 0.27 2.53 2.69z"/>
						<path id="&lt;Path&gt;" fill-rule="evenodd" class="s21" d="m494.07 116.85l-5.37-2.99-1.7 3.04 4.36 2.01z"/>
						<path id="&lt;Path&gt;" fill-rule="evenodd" class="s21" d="m439.98 177.47l-3.6-4.33-1.7 3.04 3.02 3.02z"/>
						<path id="&lt;Path&gt;" fill-rule="evenodd" class="s21" d="m493.65 125.7l-2.58-0.82-0.03 0.69 2.56 1.09z"/>
						<path id="&lt;Path&gt;" fill-rule="evenodd" class="s21" d="m454.72 285.34l-6.33-3.16-1.89-0.09 6.42 3.82z"/>
						<path id="&lt;Path&gt;" fill-rule="evenodd" class="s21" d="m462.12 285.69l-1.44-3.98 2.68 0.13 1.02 2.86z"/>
						<path id="&lt;Path&gt;" fill-rule="evenodd" class="s21" d="m448.85 283.96l-1.81-0.94-0.62 0.82 2.12 0.34z"/>
						<path id="&lt;Path&gt;" fill-rule="evenodd" class="s21" d="m443.67 288.26l-2.66-1.32-0.96 0.28 2.78 1z"/>
						<path id="&lt;Path&gt;" fill-rule="evenodd" class="s21" d="m599.04 309.28l3.28-4.22-1.05-1.01-3.46 5.17z"/>
						<path id="&lt;Path&gt;" fill-rule="evenodd" class="s21" d="m612.83 302.49l-5.42 5.96 3.08 1.37 3.69-5.63z"/>
					</g>
					<path id="&lt;Path&gt;" fill-rule="evenodd" class="s22" d="m483.75 183.93l4.3-7.61 8.97-6.81 1.98 1.27-1.93-3.18-1.19 1.84-8.4 7.11-4.29 7.67 0.63 0.89z"/>
					<path id="&lt;Path&gt;" fill-rule="evenodd" class="s22" d="m519.35 189.72l1.46-8.21 10.07-13.93 9.11-1.05 0.31 1.07-8.57 0.48-2.47 2.59-7.99 10.87-1.5 9.33z"/>
					<path id="&lt;Path&gt;" fill-rule="evenodd" class="s22" d="m517.31 148.36l13.57 1.07 2.31-0.26 0.5 0.63h-2.26-2.17l-11.95-1.15-2.2 0.12z"/>
					<path id="&lt;Path&gt;" fill-rule="evenodd" class="s22" d="m484.86 204.25h4.78l2.35 0.75 17.79 7.07 2.99 2.39-1.35 1-0.95-2.12-2.14-1.42-19.27-7.24-1.95 0.54-2.14 1.05z"/>
					<path id="&lt;Path&gt;" fill-rule="evenodd" class="s22" d="m481.21 253.33l0.51-5.07 6.52-4.18 0.95 0.54-2.65 1.02-4.49 2.62-0.12 5.07 0.29 0.5z"/>
				</g>
			</g>
		</g>
	</g>
</svg>